<?xml version="1.0" encoding="UTF-8"?> <!-- Generator: Adobe Illustrator 27.0.0, SVG Export Plug-In . SVG Version: 6.00 Build 0) --> <svg xmlns="http://www.w3.org/2000/svg" xmlns:xlink="http://www.w3.org/1999/xlink" version="1.1" id="Layer_1" x="0px" y="0px" viewBox="0 0 512 103" style="enable-background:new 0 0 512 103;" xml:space="preserve"> <style type="text/css"> .st0{fill:#251D70;} .st1{fill:#EC1C24;} .st2{fill:#2E2D76;} .st3{fill:#FFFFFF;} </style> <g> <path class="st0" d="M169.6,38.4c0,1.6-0.3,3.6-0.8,6c-0.5,2-0.9,4-1.4,6h-16.2c1.1-4.7,1.7-7.4,1.7-8.1c0-0.9-0.6-1.4-1.7-1.6 c-0.2-0.1-1.2-0.1-2.8-0.1h-3.7l-7.8,35h-16.9l10.1-45.4h25.3c4.3,0,7.5,0.4,9.5,1.2C168.1,32.6,169.6,35,169.6,38.4z"></path> <path class="st0" d="M226,43.2c0,1.5-0.1,2.8-0.4,4.1l-6.3,28.2h-39.8c-10.2,0-15.2-3.4-15.2-10.1v-2.1l0.4-1.4 c1.5-5.9,4.7-10,9.6-12.3c3.7-1.7,9.2-2.5,16.5-2.5h17.5c0.1-0.3,0.2-0.8,0.2-1.7c0-2-1.4-3.3-4.1-3.9c-1.2-0.3-3.4-0.4-6.5-0.4 h-25.1l2.5-11h30.5C219.2,30.1,226,34.5,226,43.2z M208.4,57.9h-15.8c-2.8,0-4.6,0.2-5.6,0.6c-1.7,0.7-2.6,2.1-2.6,4.3 c0,0.4,0.1,0.8,0.4,1.3c0.6,0.4,2.4,0.7,5.1,0.7h16.8L208.4,57.9z"></path> <path class="st1" d="M361.5,43.2c0,1.5-0.1,2.8-0.4,4.1l-6.4,28.2H315c-10.2,0-15.3-3.4-15.3-10.1v-2.1l0.4-1.4 c1.5-5.9,4.7-10,9.6-12.3c3.7-1.7,9.2-2.5,16.5-2.5h17.5c0.1-0.3,0.2-0.8,0.2-1.7c0-2-1.3-3.3-4-3.9c-1.2-0.3-3.4-0.4-6.5-0.4 h-25.1l2.5-11h30.5C354.7,30.1,361.5,34.5,361.5,43.2z M340.8,57.9H325c-2.8,0-4.6,0.2-5.6,0.6c-1.7,0.7-2.6,2.1-2.6,4.3 c0,0.4,0.2,0.8,0.4,1.3c0.6,0.4,2.3,0.7,5.1,0.7h16.8L340.8,57.9z"></path> <path class="st0" d="M122.2,47.6c0,8.8-3.8,15.9-11.3,21.3c-6.8,4.9-15,7.3-24.5,7.3c-7,0-12.8-1.3-17.3-4C63.7,68.9,61,64.2,61,58 c0-1.7,0.2-3.5,0.6-5.2c1.8-7.6,6.2-13.5,13.1-17.7c6.2-3.8,13.6-5.7,22.2-5.7c7,0,12.7,1.3,17.3,4 C119.5,36.6,122.2,41.3,122.2,47.6z M104.5,49.5c0-2.8-0.9-5-2.8-6.5c-1.9-1.5-4.4-2.3-7.4-2.3c-4.7,0-8.4,1.5-11.2,4.5 c-2.8,3-4.2,6.8-4.2,11.3c0,5.5,3.3,8.3,10,8.3c4.5,0,8.3-1.5,11.2-4.4C103,57.4,104.5,53.8,104.5,49.5z"></path> <path class="st1" d="M390,14.4l-13.7,61.2h-17.5l13.7-61.2H390z"></path> <path class="st0" d="M255.2,14.4l-13.7,61.2H224l13.7-61.2H255.2z"></path> <path class="st1" d="M305.2,30.1l-2.5,11.3H286c-5.7,0-9.8,0.6-12.3,1.9c-3.3,1.6-5.6,4.8-6.8,9.6c-0.2,0.9-0.4,1.9-0.4,3 c0,3.6,1.6,6,4.8,7.2c1.9,0.7,5.1,1.1,9.6,1.1h16.6L295,75.5h-21.3c-11.4,0-18.8-3-22.2-8.9c-1.6-2.9-2.5-5.9-2.5-9.2 c0-2.8,0.7-5.9,2.2-9.4c5.1-11.9,15.9-17.9,32.6-17.9H305.2z"></path> <path class="st0" d="M412.1,46.1l-2.7,12.3H384l2.7-12.3H412.1z"></path> <g> <g> <path class="st0" d="M486.4,36.5c0,9.1-2.3,16.8-6.9,23.1c-4.8,6.6-11.7,11-20.8,13.2c-3.2,0.8-7.7,1.2-13.5,1.2h-33.7l13-58.1 h33.3C476.9,15.9,486.4,22.8,486.4,36.5z M466.2,38c0-3.4-1.1-5.8-3.3-7.1c-1.7-1-4.5-1.4-8.4-1.4h-14.2l-6.9,31.1h14.2 c5.7,0,9.9-1.3,12.5-3.9c2.3-2.2,4-6.1,5.3-11.7C465.9,42.2,466.2,39.9,466.2,38z"></path> </g> </g> <g> <path class="st2" d="M498.2,28.8c-5,0-9.6-3.9-9.6-9.7c0-5.6,4.4-9.7,9.6-9.7c5.6,0,9.6,4.4,9.6,9.7 C507.8,24.6,503.6,28.8,498.2,28.8z M498.3,10.3c-5,0-8.8,4-8.8,8.8c0,5,3.9,8.8,8.7,8.8c4.9,0,8.7-3.9,8.8-8.8 C507,14.3,503.2,10.3,498.3,10.3z M498.1,13.1c1.4,0,2.1,0,2.8,0.3c1.2,0.5,1.8,1.6,1.8,2.8c0,1.7-1.2,2.7-2.7,2.9 c1.3,0.5,1.7,1.2,1.9,2.7c0.3,1.8,0.3,2.4,0.9,3.5h-2c-0.3-0.5-0.4-1.1-0.5-1.7c-0.1-0.3-0.2-1.6-0.3-1.9c-0.4-1.8-1.3-2-3-2h-0.9 v5.6h-1.8V13.1H498.1z M496.1,18.1h2c0.8,0,2.7,0,2.7-1.9c0-0.5-0.2-1-0.6-1.3c-0.5-0.5-1.1-0.5-2.6-0.5h-1.6V18.1z"></path> </g> <g> <path class="st0" d="M52.8,21.1c-7.9,0-14,2.5-18.2,7.7c-4.2,5.1-7.1,13.5-8.8,25.2c-1.4,10.1-0.8,17.3,2,21.4 c2.8,4.1,8.3,6.2,16.5,6.2h331.2l-3.9,16.1H41.1c-7.1,0-12.7-0.6-16.6-1.8c-3.9-1.2-7.5-3.3-10.7-6.2c-4.1-3.8-6.9-8.7-8.4-14.7 c-1.5-6-1.6-13.3-0.4-21.7C7.3,36.8,12.4,24.8,20.5,17C28.6,9.2,40,5.4,54.6,5.4h31.8l-6.2,15.8H52.8z"></path> </g> <g> <path class="st3" d="M188.3,87l-1.5,1c-0.6-0.5-1.4-0.8-2.5-0.8c-1.1,0-2.1,0.3-2.9,0.8c-1,0.6-1.5,1.5-1.5,2.5 c0,0.8,0.4,1.4,1.1,1.7c0.6,0.3,1.3,0.5,2.1,0.5c1.2,0,2.2-0.3,2.9-0.8l1.1,1c-1.2,0.7-2.7,1-4.3,1c-1.3,0-2.4-0.2-3.3-0.7 c-1.2-0.6-1.8-1.5-1.8-2.6c0-0.8,0.3-1.5,0.8-2.2c0.7-0.8,1.5-1.4,2.7-1.8c1-0.4,2.1-0.6,3.2-0.6C186.2,86.1,187.4,86.4,188.3,87z "></path> <path class="st3" d="M201.3,86.2l-1.6,7.5h-2l0.3-1.2c-1.1,0.9-2.6,1.3-4.4,1.3c-1.2,0-2.3-0.2-3.2-0.7c-1.2-0.6-1.8-1.5-1.8-2.5 c0-0.7,0.2-1.4,0.7-2c0.4-0.6,0.9-1,1.6-1.4c1.2-0.7,2.7-1.1,4.4-1.1c1.8,0,3.1,0.5,3.9,1.4l0.3-1.2H201.3z M198.7,89.5 c0-0.8-0.4-1.4-1.2-1.8c-0.6-0.3-1.4-0.5-2.2-0.5c-1.1,0-2.1,0.3-3,0.8c-1,0.6-1.6,1.4-1.6,2.5c0,0.8,0.4,1.4,1.2,1.8 c0.6,0.3,1.4,0.5,2.2,0.5c1.1,0,2.1-0.3,3-0.8C198.2,91.3,198.7,90.5,198.7,89.5z"></path> <path class="st3" d="M206.7,82.9l-2.3,10.9h-2l2.3-10.9H206.7z"></path> <path class="st3" d="M217.4,87l-1.5,1c-0.6-0.5-1.4-0.8-2.5-0.8c-1.1,0-2.1,0.3-2.9,0.8c-1,0.6-1.5,1.5-1.5,2.5 c0,0.8,0.4,1.4,1.1,1.7c0.6,0.3,1.3,0.5,2.1,0.5c1.2,0,2.2-0.3,2.9-0.8l1.1,1c-1.2,0.7-2.7,1-4.3,1c-1.3,0-2.4-0.2-3.3-0.7 c-1.2-0.6-1.8-1.5-1.8-2.6c0-0.8,0.3-1.5,0.8-2.2c0.6-0.8,1.5-1.4,2.7-1.8c1-0.4,2.1-0.6,3.2-0.6C215.3,86.1,216.5,86.4,217.4,87z "></path> <path class="st3" d="M221.5,86.2l-1.6,7.5h-2.1l1.6-7.5H221.5z M222.4,83.7c0,0.3-0.2,0.5-0.6,0.7c-0.3,0.2-0.7,0.2-1,0.2 c-0.3,0-0.5-0.1-0.8-0.2c-0.3-0.1-0.4-0.3-0.4-0.6c0-0.3,0.2-0.6,0.6-0.8c0.3-0.2,0.7-0.3,1-0.3C222,82.8,222.4,83.1,222.4,83.7z"></path> <path class="st3" d="M233.4,86.2l-0.9,4.3c-0.3,1.2-0.9,2.1-2.1,2.7c-0.9,0.5-2.1,0.8-3.4,0.8c-1.1,0-2-0.2-2.7-0.5 c-0.9-0.5-1.4-1.2-1.4-2.2c0-0.2,0-0.5,0.1-0.7l0.9-4.3h2l-0.9,4.2c-0.1,0.2-0.1,0.4-0.1,0.6c0,1.2,0.8,1.8,2.3,1.8 c0.8,0,1.5-0.2,2.1-0.6c0.6-0.4,1-1,1.1-1.8l0.9-4.2H233.4z"></path> <path class="st3" d="M251.6,88.7c0,0.3,0,0.5-0.1,0.7l-0.9,4.4h-2l0.9-4.2c0.1-0.3,0.1-0.5,0.1-0.7c0-1-0.7-1.6-2-1.6 c-1.9,0-2.9,0.8-3.3,2.3l-0.9,4.2h-1.9l0.9-4.2c0.1-0.2,0.1-0.4,0.1-0.7c0-1.1-0.7-1.6-2-1.6c-1.9,0-3,0.8-3.3,2.3l-0.9,4.2h-2 l1.6-7.5h2l-0.2,0.9c1-0.7,2.2-1,3.4-1c1.3,0,2.3,0.4,3,1.2c1.2-0.8,2.5-1.2,4-1.2c1,0,1.8,0.2,2.4,0.5 C251.2,87.1,251.6,87.8,251.6,88.7z"></path> <path class="st3" d="M271.9,89.6l-3,1.5l2.3,2.6h-2.6l-1.4-1.7c-2.1,1.2-4,1.8-5.6,1.8c-0.9,0-1.8-0.2-2.5-0.6 c-0.9-0.4-1.4-1.1-1.4-2v-0.3l0-0.2c0.2-0.9,1-1.7,2.2-2.4c0.7-0.4,1.8-0.8,3.2-1.3c-0.6-0.7-0.9-1.3-0.9-1.8 c0-0.7,0.4-1.3,1.3-1.8c0.7-0.4,1.5-0.5,2.3-0.5c0.7,0,1.3,0.1,1.8,0.3c0.7,0.3,1,0.8,1,1.4c0,1-1,2-2.9,2.7l2.1,2.6l2.8-1.5 L271.9,89.6z M266.5,91.1l-2.4-2.8c-1.1,0.4-2,0.8-2.5,1.1c-1.1,0.6-1.7,1.2-1.7,1.9c0,0.5,0.2,0.8,0.8,1.1 c0.4,0.2,0.8,0.3,1.3,0.3C263,92.6,264.5,92.1,266.5,91.1z M267,84.9c0-0.3-0.1-0.4-0.4-0.6c-0.2-0.1-0.5-0.2-0.7-0.2 c-0.4,0-0.7,0.1-1,0.3c-0.4,0.2-0.5,0.5-0.5,0.8c0,0.4,0.2,0.8,0.7,1.3C266.3,86.2,267,85.6,267,84.9z"></path> <path class="st3" d="M289.4,86.2l-6.6,7.5h-1.6l-3.4-7.5h2.2l2,5.2c0.1,0.2,0.2,0.6,0.3,0.9c0.2-0.3,0.4-0.6,0.6-0.8l4.4-5.3 H289.4z"></path> <path class="st3" d="M292.6,86.2l-1.6,7.5h-2l1.6-7.5H292.6z M293.6,83.7c0,0.3-0.2,0.5-0.6,0.7c-0.3,0.2-0.7,0.2-1,0.2 c-0.3,0-0.5-0.1-0.8-0.2c-0.3-0.1-0.4-0.3-0.4-0.6c0-0.3,0.2-0.6,0.6-0.8c0.3-0.2,0.7-0.3,1-0.3C293.2,82.8,293.6,83.1,293.6,83.7 z"></path> <path class="st3" d="M299.4,86.2l-0.2,1.1h-1.9l-1,4.7c0,0.1,0,0.1,0,0.2c0,0.3,0.2,0.4,0.8,0.4h1.1l-0.3,1.3h-1.1 c-0.7,0-1.2-0.1-1.6-0.2c-0.6-0.2-0.9-0.6-0.9-1.1c0-0.1,0-0.2,0.1-0.5l1-4.9h-1.5l0.2-1.1h1.5l0.4-1.8h2l-0.4,1.8H299.4z"></path> <path class="st3" d="M312.3,86.2l-1.6,7.5h-2l0.3-1.2c-1.1,0.9-2.6,1.3-4.4,1.3c-1.2,0-2.3-0.2-3.2-0.7c-1.2-0.6-1.8-1.5-1.8-2.5 c0-0.7,0.2-1.4,0.7-2c0.4-0.6,0.9-1,1.6-1.4c1.2-0.7,2.7-1.1,4.4-1.1c1.8,0,3.1,0.5,3.9,1.4l0.3-1.2H312.3z M309.7,89.5 c0-0.8-0.4-1.4-1.2-1.8c-0.6-0.3-1.4-0.5-2.2-0.5c-1.1,0-2.1,0.3-3,0.8c-1,0.6-1.6,1.4-1.6,2.5c0,0.8,0.4,1.4,1.2,1.8 c0.6,0.3,1.4,0.5,2.2,0.5c1.1,0,2.1-0.3,3-0.8C309.2,91.3,309.7,90.5,309.7,89.5z"></path> <path class="st3" d="M330.7,88.7c0,0.3,0,0.5-0.1,0.7l-0.9,4.4h-2l0.9-4.2c0.1-0.3,0.1-0.5,0.1-0.7c0-1-0.7-1.6-2-1.6 c-1.9,0-3,0.8-3.3,2.3l-0.9,4.2h-1.9l0.9-4.2c0-0.2,0.1-0.4,0.1-0.7c0-1.1-0.7-1.6-2-1.6c-1.9,0-2.9,0.8-3.3,2.3l-0.9,4.2h-2 l1.6-7.5h2l-0.2,0.9c1-0.7,2.2-1,3.4-1c1.3,0,2.3,0.4,3,1.2c1.2-0.8,2.5-1.2,4-1.2c1,0,1.8,0.2,2.4,0.5 C330.3,87.1,330.7,87.8,330.7,88.7z"></path> <path class="st3" d="M335.8,86.2l-1.6,7.5h-2.1l1.6-7.5H335.8z M336.7,83.7c0,0.3-0.2,0.5-0.6,0.7c-0.3,0.2-0.7,0.2-1,0.2 c-0.3,0-0.5-0.1-0.8-0.2c-0.3-0.1-0.4-0.3-0.4-0.6c0-0.3,0.2-0.6,0.6-0.8c0.3-0.2,0.7-0.3,1-0.3C336.3,82.8,336.7,83.1,336.7,83.7 z"></path> <path class="st3" d="M347.4,88.7c0,0.3,0,0.5-0.1,0.7l-0.9,4.4h-2l0.9-4.2c0.1-0.3,0.1-0.5,0.1-0.7c0-1-0.7-1.6-2.2-1.6 c-2,0-3.2,0.8-3.5,2.3l-0.9,4.2h-2l1.6-7.5h2l-0.2,0.9c1.1-0.7,2.3-1,3.6-1c1,0,1.8,0.2,2.4,0.5C347,87.1,347.4,87.8,347.4,88.7z"></path> <path class="st3" d="M366.2,88.2c0,0.3,0,0.6-0.1,0.9c-0.4,1.8-1.6,3.1-3.6,3.9c-1.5,0.6-3.3,0.9-5.5,0.9h-2.9l2-9.4h2.9 C363.8,84.4,366.2,85.6,366.2,88.2z M364.3,88.3c0-1.9-1.8-2.8-5.3-2.8h-1.4l-1.5,7.2h1.4c4,0,6.2-1.2,6.7-3.6 C364.3,88.9,364.3,88.6,364.3,88.3z"></path> </g> </g> </svg> 