<?xml version="1.0" encoding="UTF-8"?> <!-- Generator: Adobe Illustrator 27.0.0, SVG Export Plug-In . SVG Version: 6.00 Build 0) --> <svg xmlns="http://www.w3.org/2000/svg" xmlns:xlink="http://www.w3.org/1999/xlink" version="1.1" id="Layer_1" x="0px" y="0px" viewBox="0 0 512 106.9" style="enable-background:new 0 0 512 106.9;" xml:space="preserve"> <style type="text/css"> .st0{fill:#32327B;} .st1{fill:#EC1C24;} .st2{fill:#231F20;} .st3{fill:#FFFFFF;} </style> <g> <path class="st0" d="M150.2,51.5c0,1.4-0.2,3.2-0.7,5.3c-0.4,1.8-0.8,3.5-1.2,5.2H134c1-4.1,1.5-6.5,1.5-7.2c0-0.8-0.5-1.3-1.5-1.4 c-0.2-0.1-1-0.1-2.5-0.1h-3.3l-6.9,30.8h-14.9l8.9-39.9h22.3c3.8,0,6.6,0.4,8.4,1C148.8,46.4,150.2,48.5,150.2,51.5z"></path> <path class="st0" d="M199.8,55.7c0,1.3-0.1,2.5-0.4,3.6l-5.6,24.8h-35c-8.9,0-13.4-3-13.4-8.9v-1.8l0.3-1.3 c1.3-5.2,4.1-8.8,8.5-10.8c3.2-1.5,8.1-2.2,14.5-2.2h15.4c0.1-0.2,0.2-0.7,0.2-1.5c0-1.8-1.2-2.9-3.6-3.5c-1.1-0.3-3-0.4-5.7-0.4 h-22.1l2.2-9.7h26.8C193.8,44.2,199.8,48.1,199.8,55.7z M184.3,68.7h-13.9c-2.4,0-4.1,0.2-4.9,0.5c-1.5,0.6-2.2,1.8-2.2,3.8 c0,0.3,0.1,0.7,0.4,1.1c0.6,0.4,2.1,0.6,4.5,0.6H183L184.3,68.7z"></path> <path class="st0" d="M319,55.7c0,1.3-0.1,2.5-0.4,3.6L313,84.2h-35c-8.9,0-13.4-3-13.4-8.9v-1.8l0.3-1.3c1.3-5.2,4.1-8.8,8.5-10.8 c3.2-1.5,8.1-2.2,14.5-2.2h15.4c0.1-0.2,0.2-0.7,0.2-1.5c0-1.8-1.2-2.9-3.6-3.5c-1.1-0.3-3-0.4-5.7-0.4h-22.1l2.2-9.7h26.8 C313,44.2,319,48.1,319,55.7z M300.8,68.7h-13.9c-2.4,0-4.1,0.2-4.9,0.5c-1.5,0.6-2.2,1.8-2.2,3.8c0,0.3,0.1,0.7,0.4,1.1 c0.6,0.4,2.1,0.6,4.5,0.6h14.8L300.8,68.7z"></path> <path class="st0" d="M108.5,59.6c0,7.8-3.3,14-9.9,18.7c-6,4.3-13.2,6.4-21.6,6.4c-6.2,0-11.2-1.2-15.2-3.5 c-4.8-2.8-7.2-6.9-7.2-12.4c0-1.5,0.2-3,0.5-4.6c1.6-6.7,5.4-11.9,11.5-15.5c5.5-3.3,12-5,19.5-5c6.1,0,11.2,1.2,15.2,3.5 C106.2,49.9,108.5,54,108.5,59.6z M93,61.3c0-2.5-0.8-4.4-2.5-5.7c-1.7-1.3-3.8-2-6.5-2c-4.1,0-7.4,1.3-9.8,4 c-2.5,2.6-3.7,6-3.7,9.9c0,4.9,2.9,7.3,8.8,7.3c4,0,7.3-1.3,9.9-3.9C91.7,68.2,93,65,93,61.3z"></path> <path class="st0" d="M344,30.4l-12,53.8h-15.4l12-53.8H344z"></path> <path class="st0" d="M225.4,30.4l-12,53.8H198l12-53.8H225.4z"></path> <path class="st0" d="M269.4,44.2l-2.2,10h-14.6c-5,0-8.6,0.5-10.8,1.6c-2.9,1.4-4.9,4.2-6,8.4c-0.2,0.8-0.3,1.7-0.3,2.7 c0,3.2,1.4,5.3,4.2,6.3c1.7,0.6,4.5,1,8.5,1h14.6l-2.3,10h-18.7c-10,0-16.5-2.6-19.6-7.8c-1.4-2.5-2.2-5.2-2.2-8.1 c0-2.5,0.6-5.2,1.9-8.3c4.4-10.5,14-15.7,28.7-15.7H269.4z"></path> <path class="st0" d="M363.5,58.3l-2.4,10.8h-22.3l2.4-10.8H363.5z"></path> <g> <g> <path class="st1" d="M428.9,49.8c0,8-2,14.8-6.1,20.3c-4.2,5.8-10.3,9.7-18.3,11.6c-2.8,0.7-6.8,1.1-11.8,1.1H363l11.4-51.1h29.3 C420.5,31.7,428.9,37.7,428.9,49.8z M411,51.1c0-3-1-5.1-2.9-6.2c-1.5-0.8-4-1.3-7.4-1.3h-12.5l-6.1,27.3h12.5 c5,0,8.7-1.1,11-3.4c2-1.9,3.5-5.4,4.6-10.3C410.8,54.9,411,52.8,411,51.1z"></path> </g> </g> <g> <path class="st2" d="M493.1,51c-4.4,0-8.4-3.5-8.4-8.5c0-4.9,3.9-8.5,8.4-8.5c4.9,0,8.5,3.9,8.5,8.6C501.6,47.2,497.9,51,493.1,51 z M493.2,34.7c-4.4,0-7.7,3.5-7.7,7.8c0,4.4,3.5,7.8,7.7,7.8c4.3,0,7.7-3.4,7.7-7.7C500.9,38.2,497.6,34.7,493.2,34.7z M493,37.1 c1.2,0,1.8,0,2.5,0.2c1.1,0.4,1.6,1.4,1.6,2.4c0,1.5-1.1,2.3-2.4,2.6c1.1,0.4,1.5,1.1,1.7,2.3c0.2,1.6,0.3,2.1,0.8,3.1h-1.8 c-0.2-0.5-0.3-1-0.4-1.4c0-0.2-0.2-1.5-0.3-1.7c-0.3-1.6-1.2-1.8-2.7-1.8h-0.8v4.9h-1.5V37.1H493z M491.3,41.5h1.8 c0.7,0,2.4,0,2.4-1.7c0-0.5-0.2-0.9-0.5-1.2c-0.5-0.4-1-0.4-2.3-0.4h-1.4V41.5z"></path> </g> <g> <path class="st0" d="M47.4,36.3c-7,0-12.3,2.3-16,6.7c-3.7,4.5-6.3,11.9-7.7,22.1C22.4,74.1,23,80.4,25.5,84 c2.4,3.6,7.3,5.5,14.5,5.5h363.6l-11.4,14.1h-355c-6.3,0-11.1-0.5-14.6-1.6c-3.4-1.1-6.6-2.9-9.4-5.5c-3.6-3.3-6.1-7.6-7.4-12.9 c-1.3-5.3-1.4-11.7-0.4-19.1c2-14.4,6.6-25,13.7-31.8c7.1-6.8,17.1-10.2,30-10.2h28l-5.4,13.9H47.4z"></path> </g> <g> <path class="st3" d="M207,94.3l-1.5,0.8c-0.6-0.4-1.4-0.7-2.6-0.7c-1.1,0-2.1,0.2-3,0.7c-1,0.6-1.5,1.3-1.5,2.2 c0,0.7,0.4,1.2,1.1,1.5c0.6,0.3,1.3,0.4,2.2,0.4c1.2,0,2.2-0.2,3-0.7l1.1,0.9c-1.3,0.6-2.7,0.9-4.4,0.9c-1.3,0-2.4-0.2-3.4-0.6 c-1.2-0.5-1.8-1.3-1.8-2.3c0-0.7,0.3-1.4,0.8-2c0.7-0.7,1.6-1.2,2.7-1.6c1-0.3,2.1-0.5,3.3-0.5C204.8,93.4,206.1,93.7,207,94.3z"></path> <path class="st3" d="M220.3,93.6l-1.6,6.6h-2.1l0.3-1.1c-1.2,0.8-2.6,1.2-4.5,1.2c-1.2,0-2.3-0.2-3.3-0.6 c-1.2-0.5-1.8-1.3-1.8-2.2c0-0.6,0.2-1.2,0.7-1.8c0.4-0.5,0.9-0.9,1.6-1.3c1.2-0.6,2.7-0.9,4.5-0.9c1.8,0,3.2,0.4,4,1.2l0.3-1.1 H220.3z M217.6,96.5c0-0.7-0.4-1.2-1.2-1.6c-0.6-0.3-1.4-0.4-2.3-0.4c-1.1,0-2.1,0.2-3,0.7c-1.1,0.5-1.6,1.3-1.6,2.2 c0,0.7,0.4,1.2,1.2,1.5c0.6,0.3,1.4,0.4,2.3,0.4c1.1,0,2.1-0.2,3-0.7C217.1,98.1,217.6,97.3,217.6,96.5z"></path> <path class="st3" d="M225.7,90.6l-2.4,9.6h-2l2.4-9.6H225.7z"></path> <path class="st3" d="M236.7,94.3l-1.5,0.8c-0.6-0.4-1.4-0.7-2.6-0.7c-1.1,0-2.1,0.2-3,0.7c-1,0.6-1.5,1.3-1.5,2.2 c0,0.7,0.4,1.2,1.1,1.5c0.6,0.3,1.3,0.4,2.1,0.4c1.2,0,2.2-0.2,3-0.7l1.1,0.9c-1.3,0.6-2.7,0.9-4.4,0.9c-1.3,0-2.4-0.2-3.4-0.6 c-1.2-0.5-1.8-1.3-1.8-2.3c0-0.7,0.3-1.4,0.8-2c0.7-0.7,1.6-1.2,2.7-1.6c1-0.3,2.1-0.5,3.3-0.5C234.5,93.4,235.8,93.7,236.7,94.3z "></path> <path class="st3" d="M240.8,93.6l-1.6,6.6h-2.1l1.6-6.6H240.8z M241.8,91.4c0,0.2-0.2,0.4-0.6,0.6c-0.3,0.1-0.7,0.2-1,0.2 c-0.3,0-0.5-0.1-0.8-0.2c-0.3-0.1-0.4-0.3-0.4-0.5c0-0.3,0.2-0.5,0.6-0.7c0.3-0.2,0.7-0.2,1-0.2C241.4,90.5,241.8,90.8,241.8,91.4 z"></path> <path class="st3" d="M253,93.6l-0.9,3.7c-0.3,1.1-1,1.8-2.1,2.4c-1,0.4-2.1,0.7-3.5,0.7c-1.1,0-2-0.2-2.7-0.5 c-0.9-0.4-1.4-1-1.4-1.9c0-0.2,0-0.4,0.1-0.7l0.9-3.7h2l-0.9,3.7c-0.1,0.2-0.1,0.4-0.1,0.5c0,1,0.8,1.5,2.3,1.5 c0.8,0,1.6-0.2,2.1-0.5c0.6-0.4,1-0.9,1.2-1.6l0.9-3.7H253z"></path> <path class="st3" d="M271.6,95.7c0,0.2,0,0.4-0.1,0.6l-0.9,3.8h-2l0.9-3.7c0.1-0.2,0.1-0.4,0.1-0.6c0-0.9-0.7-1.4-2-1.4 c-1.9,0-3,0.7-3.4,2.1l-0.9,3.7h-2l0.9-3.7c0.1-0.2,0.1-0.4,0.1-0.6c0-0.9-0.7-1.4-2-1.4c-1.9,0-3,0.7-3.4,2.1l-0.9,3.7h-2 l1.6-6.6h2l-0.2,0.7c1-0.6,2.2-0.9,3.5-0.9c1.3,0,2.3,0.4,3,1.1c1.2-0.7,2.6-1.1,4.1-1.1c1,0,1.8,0.2,2.4,0.5 C271.2,94.3,271.6,94.9,271.6,95.7z"></path> <path class="st3" d="M292.3,96.5l-3.1,1.4l2.4,2.3H289l-1.4-1.5c-2.1,1.1-4,1.6-5.7,1.6c-1,0-1.8-0.2-2.5-0.5 c-0.9-0.4-1.4-1-1.4-1.7v-0.3l0-0.2c0.2-0.8,1-1.5,2.3-2.1c0.7-0.4,1.8-0.7,3.2-1.1c-0.6-0.6-0.9-1.1-0.9-1.6 c0-0.7,0.5-1.2,1.4-1.6c0.7-0.3,1.5-0.5,2.4-0.5c0.7,0,1.3,0.1,1.9,0.3c0.7,0.3,1,0.7,1,1.2c0,0.9-1,1.7-2.9,2.4l2.1,2.3l2.8-1.3 L292.3,96.5z M286.8,97.8l-2.4-2.5c-1.2,0.4-2,0.7-2.6,0.9c-1.1,0.5-1.7,1.1-1.7,1.7c0,0.4,0.3,0.7,0.8,0.9 c0.4,0.2,0.9,0.3,1.4,0.3C283.3,99.2,284.8,98.7,286.8,97.8z M287.3,92.4c0-0.2-0.1-0.4-0.4-0.5c-0.2-0.1-0.5-0.1-0.8-0.1 c-0.4,0-0.7,0.1-1,0.2c-0.4,0.2-0.5,0.4-0.5,0.7c0,0.3,0.2,0.7,0.7,1.2C286.6,93.5,287.3,93,287.3,92.4z"></path> <path class="st3" d="M310.2,93.6l-6.7,6.6h-1.7l-3.5-6.6h2.3l2,4.6c0.1,0.2,0.2,0.5,0.3,0.8c0.2-0.3,0.4-0.5,0.6-0.7l4.5-4.7 H310.2z"></path> <path class="st3" d="M313.5,93.6l-1.6,6.6h-2.1l1.6-6.6H313.5z M314.4,91.4c0,0.2-0.2,0.4-0.6,0.6c-0.4,0.1-0.7,0.2-1,0.2 c-0.3,0-0.5-0.1-0.8-0.2c-0.3-0.1-0.4-0.3-0.4-0.5c0-0.3,0.2-0.5,0.6-0.7c0.3-0.2,0.7-0.2,1-0.2C314,90.5,314.4,90.8,314.4,91.4z"></path> <path class="st3" d="M320.4,93.6l-0.2,1h-2l-1,4.1c0,0.1,0,0.1,0,0.2c0,0.3,0.2,0.4,0.8,0.4h1.1l-0.3,1.1h-1.1 c-0.7,0-1.3,0-1.6-0.1c-0.6-0.2-0.9-0.5-0.9-1c0-0.1,0-0.2,0.1-0.4l1.1-4.3h-1.5l0.2-1h1.5l0.4-1.6h2l-0.4,1.6H320.4z"></path> <path class="st3" d="M333.6,93.6l-1.6,6.6h-2l0.3-1.1c-1.2,0.8-2.6,1.2-4.5,1.2c-1.2,0-2.3-0.2-3.3-0.6c-1.2-0.5-1.8-1.3-1.8-2.2 c0-0.6,0.2-1.2,0.7-1.8c0.4-0.5,0.9-0.9,1.6-1.3c1.2-0.6,2.7-0.9,4.5-0.9c1.8,0,3.2,0.4,4,1.2l0.3-1.1H333.6z M330.9,96.5 c0-0.7-0.4-1.2-1.2-1.6c-0.6-0.3-1.4-0.4-2.3-0.4c-1.1,0-2.1,0.2-3,0.7c-1.1,0.5-1.6,1.3-1.6,2.2c0,0.7,0.4,1.2,1.2,1.5 c0.6,0.3,1.4,0.4,2.2,0.4c1.1,0,2.1-0.2,3-0.7C330.4,98.1,330.9,97.3,330.9,96.5z"></path> <path class="st3" d="M352.3,95.7c0,0.2,0,0.4-0.1,0.6l-1,3.8h-2l0.9-3.7c0.1-0.2,0.1-0.4,0.1-0.6c0-0.9-0.7-1.4-2-1.4 c-1.9,0-3,0.7-3.4,2.1l-0.9,3.7h-2l0.9-3.7c0.1-0.2,0.1-0.4,0.1-0.6c0-0.9-0.7-1.4-2-1.4c-1.9,0-3,0.7-3.4,2.1l-0.9,3.7h-2 l1.6-6.6h2l-0.2,0.7c1-0.6,2.2-0.9,3.5-0.9c1.3,0,2.3,0.4,3,1.1c1.2-0.7,2.6-1.1,4.1-1.1c1,0,1.8,0.2,2.4,0.5 C351.9,94.3,352.3,94.9,352.3,95.7z"></path> <path class="st3" d="M357.5,93.6l-1.7,6.6h-2.1l1.6-6.6H357.5z M358.4,91.4c0,0.2-0.2,0.4-0.6,0.6c-0.3,0.1-0.7,0.2-1,0.2 c-0.3,0-0.5-0.1-0.8-0.2c-0.3-0.1-0.4-0.3-0.4-0.5c0-0.3,0.2-0.5,0.6-0.7c0.3-0.2,0.7-0.2,1-0.2C358,90.5,358.4,90.8,358.4,91.4z"></path> <path class="st3" d="M369.4,95.7c0,0.2,0,0.4-0.1,0.6l-0.9,3.8h-2l0.9-3.7c0.1-0.2,0.1-0.4,0.1-0.6c0-0.9-0.7-1.4-2.2-1.4 c-2,0-3.2,0.7-3.6,2.1l-0.9,3.7h-2l1.6-6.6h2l-0.2,0.7c1.2-0.6,2.4-0.9,3.6-0.9c1,0,1.9,0.2,2.5,0.5 C369,94.3,369.4,94.9,369.4,95.7z"></path> <path class="st3" d="M388.6,95.3c0,0.2,0,0.5-0.1,0.8c-0.4,1.6-1.6,2.7-3.7,3.4c-1.5,0.5-3.4,0.7-5.6,0.7h-3l2-8.3h3 C386.1,91.9,388.6,93,388.6,95.3z M386.7,95.4c0-1.7-1.8-2.5-5.4-2.5h-1.4l-1.6,6.3h1.4c4,0,6.3-1.1,6.9-3.2 C386.6,95.9,386.7,95.6,386.7,95.4z"></path> </g> <g> <path class="st1" d="M433,33.1h16.2l5.7,14.7l36.3-44.4h16.1l-44.5,52.8l11.6,24.6h-16.6l-6.6-15.3l-31.3,38h-16.5l40.1-47.6 L433,33.1z"></path> </g> </g> </svg> 