<?xml version="1.0" encoding="UTF-8"?> <!-- Generator: Adobe Illustrator 27.0.0, SVG Export Plug-In . SVG Version: 6.00 Build 0) --> <svg xmlns="http://www.w3.org/2000/svg" xmlns:xlink="http://www.w3.org/1999/xlink" version="1.1" id="Layer_1" x="0px" y="0px" viewBox="0 0 512 162.1" style="enable-background:new 0 0 512 162.1;" xml:space="preserve"> <style type="text/css"> .st0{fill:#32347B;} .st1{fill:#EB2227;} .st2{fill:#FFFFFF;} .st3{fill:#6AC0EC;} .st4{fill:#125A84;} .st5{fill:#6BBEEA;} .st6{fill:#6ABEEB;} .st7{fill:#2F8AC9;} .st8{fill:#4EA6DC;} .st9{fill:#2E8CCC;} .st10{fill:#69BFEB;} .st11{fill:#53A3DA;} .st12{fill:#2A88C8;} .st13{fill:#1A5A81;} .st14{fill:#6ABDEA;} .st15{fill:#2E8BCA;} .st16{fill:none;} .st17{fill:#2E8ACA;} .st18{fill:#2192D0;} .st19{fill:#45A3DB;} .st20{fill:#49A7DD;} .st21{fill:#2090CF;} .st22{fill:#68BEEB;} .st23{fill:#082C45;} .st24{fill:#195981;} .st25{fill:#2393D1;} .st26{fill:#308BCA;} .st27{fill:#3089C8;} .st28{fill:#6BBFEB;} .st29{fill:#1D5D83;} .st30{fill:#2191D0;} .st31{fill:#195A81;} .st32{fill:#6CC1EC;} .st33{fill:#338BCB;} </style> <g> <g> <g> <g> <g> <path class="st0" d="M128,65.4c0,1.2-0.3,2.8-0.6,4.6c-0.3,1.5-0.6,3.1-0.9,4.6h-12.3c0.9-3.4,1.2-5.5,1.2-6.1 s-0.3-1.2-1.2-1.2c-0.3,0-0.9,0-2.1,0h-2.8l-5.8,26H90.9l7.7-34h18.7c3.1,0,5.5,0.3,7,0.9C126.8,61.2,128,63,128,65.4z"></path> <path class="st0" d="M170.2,69.1c0,1.2,0,2.1-0.3,3.1l-4.6,21.1h-29.7c-7.7,0-11.3-2.5-11.3-7.7v-1.5l0.3-0.9 c1.2-4.3,3.4-7.4,7-9.2c2.8-1.2,6.7-1.8,12.3-1.8h13.2c0-0.3,0-0.6,0-1.2c0-1.5-0.9-2.5-3.1-3.1c-0.9-0.3-2.5-0.3-4.9-0.3 h-18.7l1.8-8.3H155C165.1,59.3,170.2,62.7,170.2,69.1z M157.1,80.2h-11.9c-2.1,0-3.4,0-4.3,0.3c-1.2,0.6-1.8,1.5-1.8,3.1 c0,0.3,0,0.6,0.3,0.9c0.6,0.3,1.8,0.6,3.7,0.6h12.6L157.1,80.2z"></path> <path class="st1" d="M507.5,69.1c0,1.2,0,2.1-0.3,3.1l-4.6,21.1h-30c-7.7,0-11.3-2.5-11.3-7.7v-1.5l0.3-0.9 c1.2-4.3,3.4-7.4,7-9.2c2.8-1.2,6.7-1.8,12.3-1.8h13.2c0-0.3,0-0.6,0-1.2c0-1.5-0.9-2.5-3.1-3.1c-0.9-0.3-2.5-0.3-4.9-0.3 h-18.7l1.8-8.3h22.7C502.3,59.3,507.5,62.7,507.5,69.1z M494.4,80.2h-11.9c-2.1,0-3.4,0-4.3,0.3c-1.2,0.6-1.8,1.5-1.8,3.1 c0,0.3,0,0.6,0.3,0.9c0.6,0.3,1.8,0.6,3.7,0.6H493L494.4,80.2z"></path> <path class="st0" d="M271.3,69.1c0,1.2,0,2.1-0.3,3.1l-4.6,21.1h-29.7c-7.7,0-11.3-2.5-11.3-7.7v-1.5l0.3-0.9 c1.2-4.3,3.4-7.4,7-9.2c2.8-1.2,6.7-1.8,12.3-1.8h13.2c0-0.3,0-0.6,0-1.2c0-1.5-0.9-2.5-3.1-3.1c-0.9-0.3-2.5-0.3-4.9-0.3 h-18.7l1.8-8.3H256C266.4,59.3,271.3,62.7,271.3,69.1z M256,80.2h-11.6c-2.1,0-3.4,0-4.3,0.3c-1.2,0.6-1.8,1.5-1.8,3.1 c0,0.3,0,0.6,0.3,0.9c0.6,0.3,1.8,0.6,3.7,0.6h12.6L256,80.2z"></path> <path class="st0" d="M92.7,72.5c0,6.4-2.8,11.9-8.6,15.9c-5.2,3.7-11.3,5.5-18.4,5.5c-5.2,0-9.5-0.9-12.9-3.1 c-4-2.5-6.1-5.8-6.1-10.7c0-1.2,0-2.5,0.6-4c1.2-5.8,4.6-10.1,9.8-13.2c4.6-2.8,10.1-4.3,16.5-4.3c5.2,0,9.5,0.9,12.9,3.1 C90.6,64.2,92.7,67.6,92.7,72.5z M79.3,73.7c0-2.1-0.6-3.7-2.1-4.9c-1.5-1.2-3.4-1.5-5.5-1.5c-3.4,0-6.1,1.2-8.3,3.4 c-2.1,2.1-3.1,5.2-3.1,8.6c0,4,2.5,6.1,7.4,6.1c3.4,0,6.1-1.2,8.3-3.4C78.3,79.8,79.3,77.1,79.3,73.7z"></path> <path class="st0" d="M292.8,47.7l-10.1,45.7h-13.2l10.1-45.7H292.8z"></path> <path class="st0" d="M192,47.7l-10.1,45.7h-13.2l10.1-45.7H192z"></path> <path class="st0" d="M229.4,59.3l-1.8,8.6h-12.3c-4.3,0-7.4,0.3-9.2,1.2c-2.5,1.2-4.3,3.7-5.2,7c-0.3,0.6-0.3,1.5-0.3,2.1 c0,2.8,1.2,4.6,3.7,5.2c1.5,0.6,3.7,0.9,7,0.9h12.3l-1.8,8.6h-15.9c-8.6,0-14.1-2.1-16.5-6.7c-1.2-2.1-1.8-4.3-1.8-7 c0-2.1,0.6-4.3,1.5-7c3.7-8.9,11.9-13.5,24.5-13.5h15.9L229.4,59.3L229.4,59.3z"></path> <g> <path class="st0" d="M40.7,52.6c-5.8,0-10.4,1.8-13.5,5.8c-3.1,3.7-5.2,10.1-6.4,18.7C19.6,84.8,20.2,90,22.3,93 c2.1,3.1,6.1,4.6,12.3,4.6h247.5l-3.1,11.9H32.1c-5.2,0-9.5-0.6-12.3-1.5c-3.1-0.9-5.5-2.5-8-4.6c-3.1-2.8-5.2-6.4-6.4-11 s-1.2-9.8-0.3-16.2c1.8-12.3,5.5-21.1,11.6-27c6.1-5.8,14.4-8.6,25.4-8.6H66l-4.6,11.6H40.7V52.6z"></path> </g> <g> <path class="st2" d="M142.1,101.9l-1.2,0.6c-0.3-0.3-0.9-0.6-1.8-0.6s-1.5,0.3-2.1,0.6c-0.6,0.6-1.2,1.2-1.2,1.8 s0.3,0.9,0.9,1.2c0.3,0.3,0.9,0.3,1.5,0.3c0.9,0,1.5-0.3,2.1-0.6l0.9,0.6c-0.9,0.6-1.8,0.9-3.1,0.9c-0.9,0-1.8-0.3-2.5-0.6 c-0.9-0.3-1.2-1.2-1.2-1.8s0.3-1.2,0.6-1.5c0.6-0.6,1.2-0.9,1.8-1.2c0.6-0.3,1.5-0.3,2.5-0.3 C140.5,101,141.4,101.3,142.1,101.9z"></path> <path class="st2" d="M151.9,101.3l-1.2,5.5h-1.5l0.3-0.9c-0.9,0.6-1.8,0.9-3.4,0.9c-0.9,0-1.8-0.3-2.5-0.6 c-0.9-0.3-1.2-1.2-1.2-1.8c0-0.6,0.3-0.9,0.6-1.5c0.3-0.3,0.6-0.9,1.2-1.2c0.9-0.6,1.8-0.9,3.4-0.9c1.2,0,2.5,0.3,3.1,0.9 l0.3-0.9h0.9L151.9,101.3L151.9,101.3z M149.7,103.7c0-0.6-0.3-0.9-0.9-1.2c-0.6-0.3-0.9-0.3-1.5-0.3c-0.9,0-1.5,0.3-2.1,0.6 c-0.9,0.3-1.2,1.2-1.2,1.8s0.3,0.9,0.9,1.2c0.6,0.3,0.9,0.3,1.5,0.3c0.9,0,1.5-0.3,2.1-0.6C149.4,105,149.7,104.3,149.7,103.7 z"></path> <path class="st2" d="M155.8,98.8l-1.8,8h-1.5l1.8-8.3h1.5V98.8z"></path> <path class="st2" d="M163.8,101.9l-1.2,0.6c-0.3-0.3-0.9-0.6-1.8-0.6c-0.9,0-1.5,0.3-2.1,0.6c-0.6,0.6-1.2,1.2-1.2,1.8 s0.3,0.9,0.9,1.2c0.3,0.3,0.9,0.3,1.5,0.3c0.9,0,1.5-0.3,2.1-0.6l0.9,0.6c-0.9,0.6-2.1,0.9-3.1,0.9s-1.8-0.3-2.5-0.6 c-0.9-0.3-1.2-1.2-1.2-1.8s0.3-1.2,0.6-1.5c0.6-0.6,1.2-0.9,2.1-1.2c0.6-0.3,1.5-0.3,2.5-0.3 C162.3,101,163.2,101.3,163.8,101.9z"></path> <path class="st2" d="M166.9,101.3l-1.2,5.5h-1.5l1.2-5.5H166.9z M167.5,99.5c0,0.3-0.3,0.3-0.6,0.6c-0.3,0-0.6,0.3-0.6,0.3 c-0.3,0-0.3,0-0.6,0s-0.3-0.3-0.3-0.3c0-0.3,0.3-0.3,0.3-0.6c0.3,0,0.6-0.3,0.6-0.3C167.2,98.8,167.5,98.8,167.5,99.5z"></path> <path class="st2" d="M175.8,101.3l-0.6,3.1c-0.3,0.9-0.6,1.5-1.5,2.1c-0.6,0.3-1.5,0.6-2.5,0.6c-0.9,0-1.5,0-2.1-0.3 s-0.9-0.9-0.9-1.5c0-0.3,0-0.3,0-0.6l0.6-3.1h1.5l-0.6,3.1c0,0.3,0,0.3,0,0.3c0,0.9,0.6,1.2,1.8,1.2c0.6,0,1.2,0,1.5-0.3 s0.6-0.6,0.9-1.2l0.6-3.1h1.2C175.8,101.6,175.8,101.3,175.8,101.3z"></path> <path class="st2" d="M189.2,103.1c0,0.3,0,0.3,0,0.6l-0.6,3.4h-1.5l0.6-3.1c0-0.3,0-0.3,0-0.6c0-0.9-0.6-1.2-1.5-1.2 c-1.2,0-2.1,0.6-2.5,1.8l-0.6,3.1h-1.5l0.6-3.1c0-0.3,0-0.3,0-0.6c0-0.9-0.6-1.2-1.5-1.2c-1.5,0-2.1,0.6-2.5,1.8l-0.6,3.1H176 l1.2-5.5h1.5v0.6c0.9-0.6,1.5-0.6,2.5-0.6c0.9,0,1.8,0.3,2.1,0.9c0.9-0.6,1.8-0.9,3.1-0.9c0.6,0,1.2,0,1.8,0.3 C188.9,101.9,189.2,102.5,189.2,103.1z"></path> <path class="st2" d="M204.6,103.7l-2.1,1.2l1.8,1.8h-1.8l-0.9-1.2c-1.5,0.9-3.1,1.2-4.3,1.2c-0.6,0-1.2,0-1.8-0.3 s-0.9-0.9-0.9-1.5v-0.3v-0.3c0.3-0.6,0.6-1.2,1.5-1.8c0.6-0.3,1.2-0.6,2.5-0.9c-0.3-0.6-0.6-0.9-0.6-1.2 c0-0.6,0.3-0.9,0.9-1.2c0.6-0.3,1.2-0.3,1.8-0.3s0.9,0,1.2,0.3c0.6,0.3,0.6,0.6,0.6,0.9c0,0.9-0.6,1.5-2.1,2.1l1.5,1.8 l2.1-1.2L204.6,103.7z M200.3,105l-1.8-2.1c-0.9,0.3-1.5,0.6-1.8,0.9c-0.9,0.3-1.2,0.9-1.2,1.5c0,0.3,0.3,0.6,0.6,0.9 s0.6,0.3,0.9,0.3C197.8,105.9,199,105.6,200.3,105z M200.9,100.4c0-0.3,0-0.3-0.3-0.3s-0.3,0-0.6,0s-0.6,0-0.6,0.3 c-0.3,0.3-0.3,0.3-0.3,0.6c0,0.3,0.3,0.6,0.6,0.9C200.3,101.3,200.9,100.7,200.9,100.4z"></path> <path class="st2" d="M217.4,101.3l-4.9,5.5h-1.2l-2.5-5.5h1.5l1.5,4c0,0.3,0,0.3,0.3,0.6c0-0.3,0.3-0.6,0.3-0.6l3.4-4H217.4z"></path> <path class="st2" d="M219.9,101.3l-1.2,5.5h-1.5l1.2-5.5H219.9z M220.8,99.5c0,0.3-0.3,0.3-0.6,0.6c-0.3,0-0.6,0.3-0.6,0.3 c-0.3,0-0.3,0-0.6,0s-0.3-0.3-0.3-0.3c0-0.3,0-0.3,0.3-0.6c0.3,0,0.6-0.3,0.9-0.3C220.5,98.8,220.8,98.8,220.8,99.5z"></path> <path class="st2" d="M225.1,101.3l-0.3,0.9h-1.5l-0.6,3.4l0,0c0,0.3,0.3,0.3,0.6,0.3h0.9l-0.3,0.9H223c-0.6,0-0.9,0-1.2,0 s-0.6-0.3-0.6-0.9v-0.3l0.9-3.7h-1.2l0.3-0.9h1.2l0.3-1.5h1.5l-0.3,1.5h1.2L225.1,101.3L225.1,101.3z"></path> <path class="st2" d="M234.6,101.3l-1.2,5.5h-1.5l0.3-0.9c-0.9,0.6-1.8,0.9-3.4,0.9c-0.9,0-1.8-0.3-2.5-0.6 c-0.9-0.3-1.2-1.2-1.2-1.8c0-0.6,0.3-0.9,0.6-1.5c0.3-0.3,0.6-0.9,1.2-1.2c0.9-0.6,1.8-0.9,3.4-0.9c1.2,0,2.5,0.3,3.1,0.9 l0.3-0.9h0.9L234.6,101.3L234.6,101.3z M232.8,103.7c0-0.6-0.3-0.9-0.9-1.2c-0.6-0.3-0.9-0.3-1.5-0.3c-0.9,0-1.5,0.3-2.1,0.6 c-0.9,0.3-1.2,1.2-1.2,1.8s0.3,0.9,0.9,1.2c0.6,0.3,0.9,0.3,1.5,0.3c0.9,0,1.5-0.3,2.1-0.6C232.4,105,232.8,104.3,232.8,103.7 z"></path> <path class="st2" d="M248.4,103.1c0,0.3,0,0.3,0,0.6l-0.6,3.4h-1.5l0.6-3.1c0-0.3,0-0.3,0-0.6c0-0.9-0.6-1.2-1.5-1.2 c-1.5,0-2.1,0.6-2.5,1.8l-0.6,3.1h-1.5l0.6-3.1c0-0.3,0-0.3,0-0.6c0-0.9-0.6-1.2-1.5-1.2c-1.5,0-2.1,0.6-2.5,1.8l-0.6,3.1 h-1.5l1.2-5.5h1.5v0.6c0.6-0.6,1.5-0.6,2.5-0.6s1.8,0.3,2.1,0.9c0.9-0.6,1.8-0.9,3.1-0.9c0.6,0,1.2,0,1.8,0.3 C248.1,101.9,248.4,102.5,248.4,103.1z"></path> <path class="st2" d="M252,101.3l-1.2,5.5h-1.5l1.2-5.5H252z M253,99.5c0,0.3-0.3,0.3-0.6,0.6c-0.3,0-0.6,0.3-0.6,0.3 c-0.3,0-0.3,0-0.6,0s-0.3-0.3-0.3-0.3c0-0.3,0-0.3,0.3-0.6c0.3,0,0.6-0.3,0.6-0.3C252.7,98.8,253,98.8,253,99.5z"></path> <path class="st2" d="M260.9,103.1c0,0.3,0,0.3,0,0.6l-0.6,3.4h-1.5l0.6-3.1c0-0.3,0-0.3,0-0.6c0-0.9-0.6-1.2-1.5-1.2 c-1.5,0-2.5,0.6-2.8,1.8l-0.6,3.1H253l1.2-5.5h1.5v0.6c0.9-0.6,1.8-0.6,2.8-0.6c0.6,0,1.2,0,1.8,0.3 C260.6,101.9,260.9,102.5,260.9,103.1z"></path> <path class="st2" d="M275,102.8c0,0.3,0,0.3,0,0.6c-0.3,1.2-1.2,2.1-2.8,2.8c-1.2,0.3-2.5,0.6-4,0.6h-2.1l1.5-7h2.1 C273.2,99.8,275,100.7,275,102.8z M273.5,102.8c0-1.5-1.2-2.1-4-2.1h-0.9l-1.2,5.5h0.9c3.1,0,4.6-0.9,4.9-2.8 C273.5,103.1,273.5,103.1,273.5,102.8z"></path> </g> </g> </g> </g> <g> <path class="st1" d="M405.8,48l-36.2,45.7H355L337.2,48H354l10.7,31.5L389.6,48H405.8z"></path> <path class="st1" d="M415,93.6h-14.7l7.4-34h14.7L415,93.6z"></path> <path class="st1" d="M454.5,93.6h-11.9c-4.6,0-8-0.9-10.1-2.8c-2.2-1.8-2.8-4.6-2.1-8.3l3.1-15h-8.3l1.8-8h8.3l2.5-11.9h14.1 l-2.5,11.9H462l-1.8,8h-12.6l-2.8,12.3c-0.6,2.1-0.3,3.7,0.3,4.6c0.9,0.6,2.5,1.2,4.9,1.2h5.8L454.5,93.6z"></path> </g> <g> <path d="M313,37.6l-0.3,1.8h-5.2l-2.8,13.5h-2.1l2.8-13.5h-5.2l0.3-1.8H313z"></path> <path d="M314.9,37.6h3.1l1.5,12.9l7-12.9h3.1l-3.4,15.3h-1.8l1.8-8.9c0-0.3,0.3-0.9,0.3-1.5c0.3-0.6,0.3-1.5,0.6-2.5l-7,12.9H318 L316.4,40v0.6c0,0.3-0.3,0.9-0.3,1.8c0,0.6-0.3,1.2-0.3,1.5l-1.8,8.9h-1.8L314.9,37.6z"></path> </g> <g> <path d="M408.6,115.7c-0.9,0.3-2.1,0.9-3.4,0.9c-2.8,0-3.7-1.8-3.7-4.3c0.3-3.1,2.8-6.7,6.1-6.7c1.8,0,3.1,1.2,2.8,2.8 c-0.3,2.8-3.4,3.4-7,3.4c0,0.3,0,1.5,0,1.8c0.3,0.9,1.2,1.5,2.1,1.5c1.2,0,2.1-0.3,2.8-0.6L408.6,115.7z M407.4,107.1 c-1.5,0-3.1,1.5-3.7,3.4c2.8,0,4.9-0.3,5.2-1.8C408.9,107.4,408.3,107.1,407.4,107.1z"></path> <path d="M425.4,102.5c-0.3,0-0.6-0.3-0.9-0.3c-1.5,0-2.1,1.2-2.8,3.1v0.6h2.1l-0.3,1.5H421l-2.5,8.9h-1.8l2.5-8.9H415l-2.5,8.9 h-1.8l2.5-8.9H412l0.3-1.5h1.5v-0.6c0.3-1.2,0.9-2.5,1.8-3.4c0.6-0.6,1.5-0.9,2.5-0.9c0.6,0,0.9,0,1.2,0.3l-0.6,1.5 c-0.3,0-0.6-0.3-0.9-0.3c-1.5,0-2.1,1.5-2.5,3.1v0.3h4.3v-0.6c0.3-1.5,0.9-2.8,1.8-3.7c0.6-0.6,1.5-0.9,2.5-0.9 c0.6,0,1.2,0,1.5,0.3L425.4,102.5L425.4,102.5z"></path> <path d="M430.3,115.7c-0.9,0.3-2.1,0.9-3.4,0.9c-2.8,0-3.7-1.8-3.7-4.3c0.3-3.1,2.8-6.7,6.1-6.7c1.8,0,3.1,1.2,2.8,2.8 c-0.3,2.8-3.4,3.4-7,3.4c0,0.3,0,1.5,0,1.8c0.3,0.9,1.2,1.5,2.1,1.5c1.2,0,2.1-0.3,2.8-0.6L430.3,115.7z M429.1,107.1 c-1.5,0-3.1,1.5-3.7,3.4c2.8,0,4.9-0.3,5.2-1.8C430.6,107.4,430,107.1,429.1,107.1z"></path> <path d="M432.5,116.3l1.8-6.7c0.3-1.2,0.6-2.8,0.9-3.7h1.5c0,0.6-0.3,1.5-0.3,2.1l0,0c0.6-1.5,1.8-2.5,3.4-2.5c0,0,0.3,0,0.6,0 l-0.6,1.8c0,0-0.3,0-0.6,0c-1.5,0-3.1,1.8-3.7,4.3l-1.2,4.6L432.5,116.3L432.5,116.3z"></path> <path d="M442.9,105.9l0.6,5.8c0,1.2,0,1.8,0,2.5l0,0c0.3-0.6,0.6-1.2,1.2-2.5l3.7-6.1h1.8l-6.4,10.4H442l-0.9-10.4h1.8V105.9 L442.9,105.9z"></path> <path d="M456.7,115.7c-0.9,0.3-2.1,0.9-3.4,0.9c-2.8,0-3.7-1.8-3.7-4.3c0.3-3.1,2.8-6.7,6.1-6.7c1.8,0,3.1,1.2,2.8,2.8 c-0.3,2.8-3.4,3.4-7,3.4c0,0.3,0,1.5,0,1.8c0.3,0.9,1.2,1.5,2.1,1.5c1.2,0,2.1-0.3,2.8-0.6L456.7,115.7z M455.4,107.1 c-1.5,0-3.1,1.5-3.7,3.4c2.8,0,4.9-0.3,5.2-1.8C457,107.4,456.4,107.1,455.4,107.1z"></path> <path d="M459.1,114.5c0.6,0.3,1.2,0.6,2.1,0.6c1.2,0,2.1-0.9,2.1-1.5c0-0.9-0.3-1.2-1.2-1.8c-1.2-0.6-1.8-1.5-1.5-2.8 c0-1.8,1.8-3.1,4-3.1c0.9,0,1.8,0.3,2.1,0.6l-0.6,1.2c-0.3-0.3-0.9-0.6-1.8-0.6s-1.8,0.6-1.8,1.5c0,0.6,0.3,1.2,1.2,1.8 c1.2,0.6,1.8,1.5,1.8,2.8c-0.3,2.1-2.1,3.4-4.3,3.4c-1.2,0-2.1-0.3-2.5-0.6L459.1,114.5z"></path> <path d="M473.8,116c-0.6,0.3-1.5,0.6-3.1,0.6c-2.8,0-4-1.8-3.7-4c0.3-3.4,3.1-6.7,6.7-6.7c0.9,0,1.8,0.3,2.1,0.3l-0.6,1.5 c-0.3-0.3-0.9-0.3-1.8-0.3c-2.8,0-4.6,2.8-4.6,5.2c0,1.5,0.6,2.8,2.5,2.8c0.9,0,1.8-0.3,2.5-0.6V116L473.8,116z"></path> <path d="M483,115.7c-0.9,0.3-2.1,0.9-3.4,0.9c-2.8,0-3.7-1.8-3.7-4.3c0.3-3.1,2.8-6.7,6.1-6.7c1.8,0,3.1,1.2,2.8,2.8 c-0.3,2.8-3.4,3.4-7,3.4c0,0.3,0,1.5,0,1.8c0.3,0.9,1.2,1.5,2.1,1.5c1.2,0,2.1-0.3,2.8-0.6L483,115.7z M481.8,107.1 c-1.5,0-3.1,1.5-3.7,3.4c2.8,0,4.9-0.3,5.2-1.8C483.3,107.4,482.7,107.1,481.8,107.1z"></path> <path d="M485.5,116.3l1.8-7.4c0.3-1.2,0.6-2.1,0.6-3.1h1.5l-0.3,2.1l0,0c0.9-1.5,2.5-2.1,4-2.1c1.2,0,2.5,0.6,2.5,2.8 c0,0.3-0.3,1.2-0.3,1.5l-1.5,6.1H492l1.5-5.8c0-0.3,0.3-0.9,0.3-1.2c0-0.9-0.3-1.8-1.5-1.8s-3.1,1.5-3.7,4l-1.2,4.9 C487.3,116.3,485.5,116.3,485.5,116.3z"></path> <path d="M502.3,103.1l-0.6,2.8h2.5l-0.3,1.5h-2.5l-1.2,4.9c0,0.6-0.3,1.2-0.3,1.5c0,0.6,0.3,0.9,0.9,0.9c0.3,0,0.6,0,0.9,0 l-0.3,1.5c-0.3,0-0.9,0.3-1.5,0.3c-1.5,0-2.1-0.9-2.1-2.1c0-0.6,0-1.2,0.3-1.8l1.5-5.2H498l0.3-1.5h1.5l0.6-2.5L502.3,103.1z"></path> </g> <polygon class="st3" points="433.1,11.5 433.1,16.7 437.7,14 "></polygon> <polygon class="st4" points="411,21.6 410.7,26.9 415.3,24.1 "></polygon> <polygon class="st5" points="425.1,8.5 424.8,13.4 429.4,10.9 "></polygon> <polygon class="st6" points="418.1,13.7 418.1,18.9 422.7,16.4 "></polygon> <polygon class="st7" points="423.6,20.7 423.3,25.9 427.9,23.2 "></polygon> <polygon class="st8" points="429.7,25.6 429.7,30.5 434,28.1 "></polygon> <polygon class="st6" points="415,21.3 415,16.1 410.4,18.6 "></polygon> <polygon class="st9" points="427.6,32.4 427.9,27.1 423.3,29.6 "></polygon> <polygon class="st10" points="422.4,9.1 422.7,3.9 418.1,6.3 "></polygon> <polygon class="st11" points="428.8,20.4 428.8,15.2 424.5,18 "></polygon> <polygon class="st12" points="421.1,29.3 421.5,24.1 416.9,26.9 "></polygon> <polygon class="st13" points="416.9,26.9 416.9,31.7 421.1,29.3 "></polygon> <polygon class="st14" points="434.9,26.5 439.5,24.1 434.9,21.6 "></polygon> <polygon class="st14" points="434.9,21.6 430.3,23.8 434.9,26.5 "></polygon> <polygon class="st15" points="408.9,26.9 409.2,21.6 404.6,24.1 "></polygon> <polygon class="st15" points="415.3,30.8 415.3,25.6 411,28.4 "></polygon> <g> <path class="st16" d="M411.6,24.7v0.6L412,25L411.6,24.7z"></path> <polygon class="st17" points="416.9,33.9 416.5,40 416.9,40 422.1,37 "></polygon> <polygon class="st18" points="427.6,40 432.8,42.8 432.8,36.6 427.6,39.7 "></polygon> <polygon class="st19" points="422.1,42.8 427.6,39.7 422.1,37 "></polygon> <polygon class="st20" points="427.6,33.6 427.6,33.6 422.1,36.6 422.1,37 427.6,39.7 427.6,39.7 "></polygon> <polygon class="st21" points="422.1,37 416.9,40 422.1,42.8 422.1,42.8 "></polygon> <polygon class="st15" points="416.9,33.9 411.3,30.8 411.3,37 411.3,37 "></polygon> <polygon class="st20" points="433.1,36.6 433.1,30.5 427.6,33.6 427.6,33.6 "></polygon> <polygon class="st22" points="427.6,39.7 432.8,36.6 433.1,36.6 427.6,33.6 "></polygon> <polygon class="st17" points="416.9,33.9 411.3,37 416.5,40 "></polygon> <path class="st23" d="M416.5,51v-5.2l-4.6,2.5C413.5,49.5,414.7,50.4,416.5,51z"></path> <path class="st24" d="M422.1,48.9L422.1,48.9L422.1,48.9z"></path> <polygon class="st17" points="422.1,37 422.1,36.6 422.4,30.8 422.4,30.8 416.9,33.9 416.9,33.9 "></polygon> <polygon class="st20" points="427.6,33.6 422.4,30.8 422.1,36.6 "></polygon> <path class="st25" d="M435.2,44c0.6-0.9,0.9-2.1,1.5-3.4l-3.7,2.1L435.2,44z"></path> <path class="st26" d="M408.3,29.3c-0.6,1.2-1.2,2.8-1.5,4.3l4.6-2.5L408.3,29.3z"></path> <path class="st27" d="M411,42.8l-4.3-2.5c0.3,1.5,0.9,2.8,1.5,4L411,42.8L411,42.8z"></path> <path class="st26" d="M411.3,30.8L411.3,30.8l-4.6,2.5c0,0.3,0,0.6-0.3,0.9L411,37L411.3,30.8z"></path> <path class="st28" d="M411.3,37l-4.6,2.8c0,0.3,0,0.6,0.3,0.9l4.3,2.5L411.3,37L411.3,37z"></path> <path class="st17" d="M411.3,37l-4.6-2.8c0,0.9-0.3,1.5-0.3,2.5c0,0.9,0,1.8,0.3,2.8L411.3,37L411.3,37z"></path> <path class="st23" d="M417.5,51.4c1.2,0.3,2.8,0.6,4.3,0.6l0,0v-3.1L417.5,51.4z"></path> <path class="st23" d="M422.1,48.9V52c1.5,0,3.1-0.3,4.6-0.6L422.1,48.9L422.1,48.9z"></path> <path class="st13" d="M427.6,45.8l-5.5,3.1l4.3,2.5c0.3,0,0.6-0.3,0.9-0.3L427.6,45.8L427.6,45.8z"></path> <path class="st23" d="M427.3,51c1.5-0.6,3.1-1.5,4.3-2.8l-4.3-2.5V51z"></path> <path class="st24" d="M432.8,47.4v-4.6l-5.2,3.1l0,0l4.3,2.5C432.2,48,432.5,47.7,432.8,47.4z"></path> <path class="st13" d="M422.1,48.9l-5.2-3.1l0,0V51c0.3,0,0.6,0.3,1.2,0.3L422.1,48.9L422.1,48.9z"></path> <path class="st29" d="M416.5,46.1L416.5,46.1l-5.2-3.1l0,0v4.6c0.3,0.3,0.6,0.6,0.9,0.9L416.5,46.1z"></path> <path class="st29" d="M408.6,44.6c0.6,1.2,1.5,2.1,2.5,3.1v-4.6L408.6,44.6z"></path> <polygon class="st24" points="422.1,42.8 416.5,45.8 422.1,48.9 "></polygon> <polygon class="st24" points="422.1,48.9 422.1,48.9 427.6,45.8 422.1,42.8 "></polygon> <polygon class="st30" points="427.6,40 427.6,45.8 432.8,42.8 432.8,42.8 "></polygon> <polygon class="st31" points="427.6,39.7 422.1,42.8 422.1,42.8 427.6,45.8 427.6,45.8 427.6,40 "></polygon> <polygon class="st31" points="416.9,40 416.5,40 416.5,45.8 416.5,45.8 422.1,42.8 "></polygon> <polygon class="st17" points="416.5,40 411.3,37 411.3,37 411,42.8 411.3,43.1 "></polygon> <polygon class="st21" points="411.3,43.1 416.5,45.8 416.5,40 "></polygon> <g> <path class="st32" d="M436.5,31.7l-2.5-1.5l-0.6,0.3v5.8l0,0l4-2.1C436.8,33.6,436.8,32.7,436.5,31.7z"></path> </g> <path class="st24" d="M432.8,42.8v4.6c0.9-0.9,1.8-2.1,2.5-3.4L432.8,42.8L432.8,42.8z"></path> <path class="st28" d="M432.8,36.6v6.1l0,0l3.7-2.1c0.3-0.6,0.3-1.2,0.3-1.8L432.8,36.6L432.8,36.6z"></path> <path class="st8" d="M437.1,38.8c0-0.6,0.3-1.5,0.3-2.1s0-1.5-0.3-2.1l-4,2.1L437.1,38.8z"></path> <polygon class="st33" points="436.8,28.7 435.2,29.3 437.7,30.8 439.5,32.1 439.8,26.9 "></polygon> </g> </g> <g> <path d="M67,141.4c-0.3-0.3-0.9-0.6-1.8-0.6c-0.6,0-1.2,0.3-1.8,0.6c-0.3,0.3-0.9,0.9-0.9,1.5c-0.3,0.6-0.3,1.2-0.3,1.8 s0,1.2-0.3,1.8l0,0c0.3-0.6,0.9-1.2,1.5-1.5s1.2-0.3,2.1-0.3c0.6,0,1.2,0,1.8,0.3c0.6,0.3,0.9,0.6,1.5,0.9 c0.3,0.3,0.6,0.9,0.9,1.5s0.3,1.2,0.3,1.8s0,1.2-0.3,1.5c-0.3,0.6-0.3,1.2-0.9,1.5c-0.3,0.6-0.9,0.9-1.5,1.2s-1.5,0.6-2.5,0.6 c-1.2,0-1.8-0.3-2.8-0.6c-0.9-0.3-1.2-0.9-1.5-1.8c-0.3-0.6-0.6-1.5-0.6-2.1c0-0.9-0.3-1.5-0.3-2.5s0-1.8,0.3-3.1 c0.3-0.9,0.6-1.8,0.9-2.5c0.3-0.6,0.9-1.2,1.5-1.8c0.6-0.3,1.5-0.6,2.8-0.6c1.2,0,2.1,0.3,2.8,0.9c0.6,0.6,1.2,1.5,1.2,2.8h-1.8 C67.6,142.3,67.6,142,67,141.4z M64,146.3c-0.3,0.3-0.6,0.3-0.9,0.6c-0.3,0.3-0.3,0.6-0.6,0.9c0,0.3-0.3,0.9-0.3,1.2 s0,0.9,0.3,1.2c0,0.3,0.3,0.6,0.6,0.9c0.3,0.3,0.6,0.6,0.9,0.6c0.3,0.3,0.9,0.3,1.2,0.3s0.9,0,1.2-0.3c0.3-0.3,0.6-0.3,0.9-0.6 s0.3-0.6,0.6-0.9c0-0.3,0.3-0.9,0.3-1.2s0-0.9-0.3-1.2c0-0.3-0.3-0.6-0.6-0.9c-0.3-0.3-0.6-0.6-0.9-0.6s-0.6,0-1.2,0 S64.2,146.3,64,146.3z"></path> <path d="M71.6,145.1c0-0.6,0-1.2,0.3-1.8c0-0.6,0.3-1.2,0.6-1.5c0.3-0.6,0.6-0.9,0.9-1.2s0.9-0.6,1.2-0.9c0.6-0.3,1.2-0.3,1.8-0.3 c0.6,0,1.5,0,1.8,0.3c0.6,0.3,0.9,0.6,1.2,0.9c0.3,0.3,0.6,0.9,0.9,1.2c0.3,0.6,0.3,0.9,0.6,1.5c0,0.6,0.3,1.2,0.3,1.8 s0,1.2,0,1.5s0,1.2,0,1.5c0,0.6,0,1.2-0.3,1.8c0,0.6-0.3,1.2-0.6,1.5c-0.3,0.6-0.6,0.9-0.9,1.2s-0.9,0.6-1.2,0.9 c-0.6,0.3-1.2,0.3-1.8,0.3c-0.6,0-1.5,0-1.8-0.3c-0.6-0.3-0.9-0.6-1.2-0.9c-0.3-0.3-0.6-0.9-0.9-1.2c-0.3-0.6-0.3-0.9-0.6-1.5 c0-0.6-0.3-1.2-0.3-1.8s0-1.2,0-1.5S71.6,145.7,71.6,145.1z M73.5,148.8c0,0.6,0,1.2,0.3,1.8s0.6,1.2,0.9,1.5s0.9,0.6,1.8,0.6 s1.2-0.3,1.8-0.6c0.3-0.3,0.6-0.9,0.9-1.5s0.3-1.2,0.3-1.8s0-1.2,0-1.8c0-0.3,0-0.6,0-1.2c0-0.3,0-0.9,0-1.2s0-0.9-0.3-1.2 c0-0.3-0.3-0.9-0.6-1.2c-0.3-0.3-0.6-0.6-0.9-0.6c-0.3-0.3-0.9-0.3-1.2-0.3c-0.6,0-0.9,0-1.2,0.3c-0.3,0.3-0.6,0.3-0.9,0.6 s-0.3,0.6-0.6,1.2c0,0.3-0.3,0.9-0.3,1.2s0,0.9,0,1.2s0,0.9,0,1.2C73.5,147.5,73.5,148.2,73.5,148.8z"></path> <path d="M83.2,145.1c0-0.6,0-1.2,0.3-1.8c0-0.6,0.3-1.2,0.6-1.5c0.3-0.6,0.6-0.9,0.9-1.2s0.9-0.6,1.2-0.9c0.6-0.3,1.2-0.3,1.8-0.3 s1.5,0,1.8,0.3c0.6,0.3,0.9,0.6,1.2,0.9c0.3,0.3,0.6,0.9,0.9,1.2c0.3,0.6,0.3,0.9,0.6,1.5c0,0.6,0.3,1.2,0.3,1.8s0,1.2,0,1.5 s0,1.2,0,1.5c0,0.6,0,1.2-0.3,1.8c0,0.6-0.3,1.2-0.6,1.5c-0.3,0.6-0.6,0.9-0.9,1.2s-0.9,0.6-1.2,0.9c-0.6,0.3-1.2,0.3-1.8,0.3 s-1.5,0-1.8-0.3c-0.6-0.3-0.9-0.6-1.2-0.9c-0.3-0.3-0.6-0.9-0.9-1.2c-0.3-0.6-0.3-0.9-0.6-1.5c0-0.6-0.3-1.2-0.3-1.8s0-1.2,0-1.5 S83.2,145.7,83.2,145.1z M85.1,148.8c0,0.6,0,1.2,0.3,1.8s0.6,1.2,0.9,1.5s0.9,0.6,1.8,0.6c0.6,0,1.2-0.3,1.8-0.6 c0.3-0.3,0.6-0.9,0.9-1.5s0.3-1.2,0.3-1.8s0-1.2,0-1.8c0-0.3,0-0.6,0-1.2c0-0.3,0-0.9,0-1.2s0-0.9-0.3-1.2c0-0.3-0.3-0.9-0.6-1.2 c-0.3-0.3-0.6-0.6-0.9-0.6c-0.3-0.3-0.9-0.3-1.2-0.3c-0.6,0-0.9,0-1.2,0.3c-0.3,0.3-0.6,0.3-0.9,0.6s-0.3,0.6-0.6,1.2 c0,0.3-0.3,0.9-0.3,1.2s0,0.9,0,1.2s0,0.9,0,1.2C85.1,147.5,85.1,148.2,85.1,148.8z"></path> <path d="M102.5,143.3v1.5l0,0c0.9-1.2,1.8-1.8,3.4-1.8c0.6,0,1.2,0,1.8,0.3s0.9,0.6,1.2,1.5c0.3-0.6,0.9-0.9,1.5-1.2 s1.2-0.3,1.8-0.3c0.6,0,0.9,0,1.5,0.3c0.3,0,0.9,0.3,1.2,0.6c0.3,0.3,0.6,0.6,0.6,0.9c0.3,0.3,0.3,0.9,0.3,1.5v8H114v-7 c0-0.3,0-0.6,0-0.9c0-0.3-0.3-0.6-0.3-0.6c0-0.3-0.3-0.3-0.6-0.6c-0.3,0-0.6-0.3-0.9-0.3c-0.9,0-1.5,0.3-2.1,0.6 c-0.6,0.6-0.6,1.2-0.6,1.8v6.7h-1.8v-7c0-0.3,0-0.6,0-0.9s-0.3-0.6-0.3-0.6c0-0.3-0.3-0.3-0.6-0.6c-0.3,0-0.6-0.3-0.9-0.3 c-0.6,0-0.9,0-1.2,0.3c-0.3,0.3-0.6,0.3-0.9,0.6s-0.3,0.6-0.6,0.9c0,0.3-0.3,0.6-0.3,0.9v6.7h-1.8v-11L102.5,143.3L102.5,143.3z"></path> <path d="M126.8,157c-0.9,0.9-2.1,1.2-3.7,1.2c-0.6,0-0.9,0-1.5-0.3c-0.6,0-0.9-0.3-1.5-0.6c-0.3-0.3-0.9-0.6-0.9-0.9 c-0.3-0.3-0.3-0.9-0.3-1.5h1.5c0,0.3,0,0.6,0.3,0.9c0.3,0.3,0.3,0.3,0.6,0.6c0.3,0,0.6,0.3,0.9,0.3s0.6,0,0.9,0 c0.6,0,0.9,0,1.5-0.3s0.6-0.6,0.9-0.9s0.3-0.9,0.6-1.2c0-0.6,0.3-0.9,0.3-1.5v-0.6l0,0c-0.3,0.6-0.6,1.2-1.5,1.5 c-0.6,0.3-1.2,0.6-1.8,0.6c-0.9,0-1.5,0-2.1-0.3s-1.2-0.6-1.5-1.2c-0.3-0.6-0.6-0.9-0.9-1.8c-0.3-0.6-0.3-1.2-0.3-2.1 c0-0.6,0-1.2,0.3-1.8s0.3-1.2,0.9-1.8c0.3-0.6,0.9-0.9,1.5-1.2s1.5-0.6,2.5-0.6c0.6,0,1.2,0,1.8,0.3c0.6,0.3,0.9,0.6,1.2,1.2l0,0 v-1.5h1.5v9.8C128,154.9,127.4,156.1,126.8,157z M124.3,152.1c0.3-0.3,0.6-0.6,0.9-0.9c0.3-0.3,0.3-0.9,0.6-1.2 c0-0.6,0.3-0.9,0.3-1.5s0-0.9-0.3-1.5c0-0.3-0.3-0.9-0.6-1.2c-0.3-0.3-0.6-0.6-0.9-0.9c-0.3-0.3-0.9-0.3-1.5-0.3s-0.9,0-1.5,0.3 c-0.3,0.3-0.6,0.6-0.9,0.9c0,0.6,0,0.9-0.3,1.5c0,0.6-0.3,0.9-0.3,1.5s0,0.9,0,1.5s0.3,0.9,0.6,1.2c0.3,0.3,0.6,0.6,0.9,0.9 c0.3,0.3,0.9,0.3,1.5,0.3C123.4,152.8,124,152.4,124.3,152.1z"></path> <path d="M145.4,141.4c-0.6-0.6-1.5-0.9-2.8-0.9c-0.9,0-1.5,0.3-2.1,0.6s-1.2,0.9-1.5,1.2c-0.3,0.6-0.6,1.2-0.9,1.8 c-0.3,0.6-0.3,1.5-0.3,2.1c0,0.9,0,1.5,0.3,2.5c0.3,0.6,0.6,1.5,0.9,1.8c0.3,0.6,0.9,0.9,1.5,1.2s1.5,0.6,2.1,0.6s1.2,0,1.8-0.3 s0.9-0.6,1.2-0.9c0.3-0.3,0.6-0.9,0.9-1.2c0.3-0.3,0.3-1.2,0.3-1.8h1.8c-0.3,1.8-0.9,3.4-1.8,4.3c-1.2,0.9-2.5,1.5-4.6,1.5 c-1.2,0-2.1-0.3-3.1-0.6s-1.5-0.9-2.1-1.5s-0.9-1.5-1.2-2.5c-0.3-0.9-0.3-1.8-0.3-3.1c0-1.2,0-2.1,0.3-3.1s0.6-1.8,1.2-2.5 c0.6-0.6,1.2-1.2,2.1-1.5c0.9-0.3,1.8-0.6,3.1-0.6c0.9,0,1.5,0,2.1,0.3s1.2,0.6,1.8,0.9c0.6,0.3,0.9,0.9,1.2,1.5s0.6,1.2,0.6,2.1 h-1.8C146.7,142.6,146.3,142,145.4,141.4z"></path> <path d="M150.9,146.6c0.3-0.6,0.6-1.2,0.9-1.8c0.3-0.6,0.9-0.9,1.5-1.2s1.5-0.3,2.1-0.3c0.9,0,1.5,0,2.1,0.3s1.2,0.6,1.5,1.2 c0.3,0.6,0.9,1.2,0.9,1.8c0.3,0.6,0.3,1.5,0.3,2.1c0,0.9,0,1.5-0.3,2.1s-0.6,1.2-0.9,1.8c-0.3,0.6-0.9,0.9-1.5,1.2 s-1.5,0.3-2.1,0.3c-0.9,0-1.5,0-2.1-0.3s-1.2-0.6-1.5-1.2c-0.3-0.6-0.9-1.2-0.9-1.8c-0.3-0.6-0.3-1.5-0.3-2.1 C150.7,147.9,150.7,147.2,150.9,146.6z M152.8,150.6c0.3,0.6,0.3,0.9,0.6,1.2s0.6,0.6,1.2,0.6c0.3,0.3,0.9,0.3,1.2,0.3 s0.9,0,1.2-0.3s0.6-0.3,0.9-0.9c0.3-0.3,0.6-0.6,0.6-1.2c0.3-0.6,0.3-1.2,0.3-1.8s0-1.2-0.3-1.8s-0.3-0.9-0.6-1.2 s-0.6-0.6-0.9-0.9c-0.3-0.3-0.9-0.3-1.2-0.3s-0.9,0-1.2,0.3s-0.6,0.3-0.9,0.9c-0.3,0.3-0.6,0.9-0.6,1.2c-0.3,0.6-0.3,1.2-0.3,1.8 C152.5,149.4,152.5,150,152.8,150.6z"></path> <path d="M164.7,143.3v2.1l0,0c0.3-0.9,0.9-1.5,1.5-1.8s1.5-0.6,2.5-0.6v1.8c-0.6,0-1.2,0-1.8,0.3s-0.9,0.6-1.2,0.9 c-0.3,0.3-0.6,0.9-0.6,1.2s-0.3,1.2-0.3,1.8v4.9h-1.5v-10.7C163.2,143.3,164.7,143.3,164.7,143.3z"></path> <path d="M178.2,154.3c-0.3,0-0.9,0-1.2-0.3s-0.3-0.6-0.3-1.2c-0.6,0.6-0.9,0.9-1.8,1.2c-0.6,0.3-1.2,0.3-2.1,0.3 c-0.6,0-0.9,0-1.2-0.3c-0.3,0-0.9-0.3-1.2-0.6s-0.6-0.6-0.9-0.9c0.3,0,0-0.6,0-1.2c0-0.6,0-1.2,0.3-1.5s0.6-0.6,0.9-0.9 c0.3-0.3,0.6-0.3,1.2-0.6c0.3,0,0.9-0.3,1.2-0.3c0.6,0,0.9-0.3,1.5-0.3s0.9,0,1.2-0.3c0.3,0,0.6-0.3,0.9-0.3 c0.3-0.3,0.3-0.3,0.3-0.6s0-0.6-0.3-0.9c0-0.3-0.3-0.3-0.6-0.6c-0.3,0-0.6-0.3-0.9-0.3c-0.3,0-0.6,0-0.9,0c-0.6,0-1.2,0-1.8,0.3 s-0.9,0.9-0.9,1.5h-1.8c0-0.6,0.3-1.2,0.3-1.5c0.3-0.3,0.6-0.9,0.9-1.2c0.3-0.3,0.9-0.6,1.5-0.6s1.2-0.3,1.8-0.3s0.9,0,1.5,0 s0.9,0.3,1.2,0.3c0.3,0.3,0.6,0.6,0.9,0.9c0.3,0.3,0.3,0.9,0.3,1.5v5.5c0,0.3,0,0.6,0,0.9c0,0.3,0.3,0.3,0.6,0.3c0,0,0.3,0,0.6,0 v1.2C179.1,154.3,178.8,154.3,178.2,154.3z M175.8,148.8c-0.3,0-0.6,0-1.2,0.3c-0.3,0-0.9,0-1.2,0.3c-0.3,0-0.6,0.3-1.2,0.3 c-0.3,0-0.6,0.3-0.9,0.6c-0.3,0.3-0.3,0.6-0.3,0.9s0,0.6,0.3,0.6c0,0.3,0.3,0.3,0.3,0.6c0.3,0,0.3,0.3,0.6,0.3s0.6,0,0.9,0 c0.6,0,1.2,0,1.5-0.3s0.6-0.3,0.9-0.6c0.3-0.3,0.3-0.6,0.6-0.9c0-0.3,0.3-0.6,0.3-0.9v-1.8C176.4,148.8,176.1,148.8,175.8,148.8z"></path> <path d="M183.1,139.3V154h-1.8v-14.7H183.1z"></path> <path d="M200.9,141.4c-0.6-0.6-1.5-0.9-2.8-0.9c-0.9,0-1.5,0.3-2.1,0.6s-1.2,0.9-1.5,1.2c-0.3,0.6-0.6,1.2-0.9,1.8 c-0.3,0.6-0.3,1.5-0.3,2.1c0,0.9,0,1.5,0.3,2.5c0.3,0.6,0.6,1.5,0.9,1.8c0.3,0.6,0.9,0.9,1.5,1.2s1.5,0.6,2.1,0.6s1.2,0,1.8-0.3 s0.9-0.6,1.2-0.9c0.3-0.3,0.6-0.9,0.9-1.2c0.3-0.6,0.3-1.2,0.3-1.8h1.8c-0.3,1.8-0.9,3.4-1.8,4.3c-1.2,0.9-2.5,1.5-4.6,1.5 c-1.2,0-2.1-0.3-3.1-0.6s-1.5-0.9-2.1-1.5s-0.9-1.5-1.2-2.5c-0.3-0.9-0.3-1.8-0.3-3.1c0-1.2,0-2.1,0.3-3.1 c0.3-0.9,0.6-1.8,1.2-2.5c0.6-0.6,1.2-1.2,2.1-1.5c0.9-0.3,1.8-0.6,3.1-0.6c0.9,0,1.5,0,2.1,0.3s1.2,0.6,1.8,0.9 c0.6,0.3,0.9,0.9,1.2,1.5s0.6,1.2,0.6,2.1h-1.8C202.1,142.6,201.5,142,200.9,141.4z"></path> <path d="M214.7,154.3c-0.3,0-0.9,0-1.2-0.3s-0.3-0.6-0.3-1.2c-0.6,0.6-0.9,0.9-1.8,1.2c-0.6,0.3-1.2,0.3-2.1,0.3 c-0.6,0-0.9,0-1.2-0.3c-0.3,0-0.9-0.3-1.2-0.6s-0.6-0.6-0.9-0.9c-0.3-0.3-0.3-0.9-0.3-1.2c0-0.6,0-1.2,0.3-1.5s0.6-0.6,0.9-0.9 c0.3-0.3,0.6-0.3,1.2-0.6c0.3,0,0.9-0.3,1.2-0.3c0.6,0,0.9-0.3,1.5-0.3s0.9,0,1.2-0.3c0.3,0,0.6-0.3,0.9-0.3 c0.3-0.3,0.3-0.3,0.3-0.6s0-0.6-0.3-0.9c0-0.3-0.3-0.3-0.6-0.6c-0.3,0-0.6-0.3-0.9-0.3c-0.3,0-0.6,0-0.9,0c-0.6,0-1.2,0-1.8,0.3 s-0.9,0.9-0.9,1.5H206c0-0.6,0.3-1.2,0.3-1.5c0.3-0.3,0.6-0.9,0.9-1.2c0.3-0.3,0.9-0.6,1.5-0.6s1.2-0.3,1.8-0.3s0.9,0,1.5,0 s0.9,0.3,1.2,0.3c0.3,0.3,0.6,0.6,0.9,0.9c0.3,0.3,0.3,0.9,0.3,1.5v5.5c0,0.3,0,0.6,0,0.9c0,0.3,0.3,0.3,0.6,0.3c0,0,0.3,0,0.6,0 v1.2C215.6,154.3,215.3,154.3,214.7,154.3z M212.2,148.8c-0.3,0-0.6,0-1.2,0.3c-0.3,0-0.9,0-1.2,0.3s-0.6,0-0.9,0.3 c-0.3,0-0.6,0.3-0.9,0.6c-0.3,0.3-0.3,0.6-0.3,0.9s0,0.6,0.3,0.6c0,0.3,0.3,0.3,0.3,0.6c0.3,0,0.3,0.3,0.6,0.3s0.6,0,0.9,0 c0.6,0,1.2,0,1.5-0.3s0.6-0.3,0.9-0.6c0.3-0.3,0.3-0.6,0.6-0.9c0-0.3,0.3-0.6,0.3-0.9v-1.8C212.8,148.8,212.5,148.8,212.2,148.8z"></path> <path d="M219.6,139.3V154h-1.8v-14.7H219.6z"></path> <path d="M228.8,145.1c-0.3-0.3-0.9-0.6-1.8-0.6c-0.6,0-1.2,0-1.5,0.3s-0.9,0.6-0.9,0.9c-0.3,0.3-0.3,0.9-0.6,1.2 c0,0.6-0.3,0.9-0.3,1.5s0,0.9,0.3,1.5c0,0.6,0.3,0.9,0.6,1.2s0.6,0.6,0.9,0.9c0.3,0.3,0.9,0.3,1.5,0.3c0.9,0,1.5-0.3,2.1-0.6 s0.9-1.2,0.9-1.8h1.8c-0.3,1.2-0.6,2.5-1.5,3.1s-1.8,1.2-3.4,1.2c-0.9,0-1.5,0-2.1-0.3s-1.2-0.6-1.5-1.2c-0.3-0.6-0.6-0.9-0.9-1.8 c-0.3-0.6-0.3-1.5-0.3-2.1c0-0.9,0-1.5,0.3-2.1s0.6-1.2,0.9-1.8c0.3-0.6,0.9-0.9,1.5-1.2s1.2-0.3,2.1-0.3c0.6,0,1.2,0,1.8,0.3 c0.6,0,0.9,0.3,1.5,0.6c0.3,0.3,0.6,0.6,0.9,1.2c0.3,0.6,0.3,0.9,0.6,1.5H230C229.4,146,229.1,145.7,228.8,145.1z"></path> <path d="M233.4,141.4v-2.1h1.8v2.1H233.4z M235.2,143.3V154h-1.8v-10.7H235.2z"></path> <path d="M245.3,154v-1.5l0,0c-0.3,0.6-0.9,1.2-1.5,1.5s-1.2,0.6-2.1,0.6c-0.6,0-1.2,0-1.8-0.3s-0.9-0.3-1.2-0.9 c-0.3-0.3-0.6-0.6-0.6-1.2c0-0.6-0.3-0.9-0.3-1.5v-7.4h2.1v7.4c0,0.6,0.3,1.2,0.6,1.5s0.9,0.6,1.5,0.6s0.9,0,1.5-0.3 c0.3-0.3,0.6-0.3,0.9-0.6c0.3-0.3,0.3-0.6,0.6-0.9c0-0.3,0.3-0.9,0.3-1.2v-6.1h1.8v10.7h-1.8V154z"></path> <path d="M251.1,143.3v1.5l0,0c0.9-1.2,1.8-1.8,3.4-1.8c0.6,0,1.2,0,1.8,0.3c0.6,0.3,0.9,0.6,1.2,1.5c0.3-0.6,0.9-0.9,1.5-1.2 s1.2-0.6,1.8-0.6s0.9,0,1.5,0.3c0.3,0,0.9,0.3,1.2,0.6c0.3,0.3,0.6,0.6,0.6,0.9c0,0.3,0.3,0.9,0.3,1.5v8h-1.8v-7 c0-0.3,0-0.6,0-0.9s-0.3-0.6-0.3-0.6c0-0.3-0.3-0.3-0.6-0.6c-0.3,0-0.6-0.3-0.9-0.3c-0.9,0-1.5,0.3-2.1,0.6 c-0.6,0.6-0.6,1.2-0.6,1.8v6.7h-1.8v-7.1c0-0.3,0-0.6,0-0.9c0-0.3-0.3-0.6-0.3-0.6c0-0.3-0.3-0.3-0.6-0.6c-0.3,0-0.6-0.3-0.9-0.3 c-0.6,0-0.9,0-1.2,0.3s-0.6,0.3-0.9,0.6c-0.3,0.3-0.3,0.6-0.6,0.9c0,0.3-0.3,0.6-0.3,0.9v6.7h-1.8v-10.7 C249.6,143.3,251.1,143.3,251.1,143.3z"></path> <path d="M279.3,153.7c-0.9,0.3-1.5,0.6-2.5,0.6s-1.8,0-2.5-0.3c-0.6-0.3-1.2-0.6-1.5-1.2c-0.3-0.3-0.6-0.9-0.6-1.2 s-0.3-0.9-0.3-1.2c0-0.6,0-1.2,0.3-1.5s0.3-0.9,0.6-1.2c0.3-0.3,0.6-0.6,1.2-0.9c0.3-0.3,0.9-0.6,1.2-0.9 c-0.3-0.3-0.3-0.6-0.6-0.9c-0.3-0.3-0.3-0.6-0.6-0.9c-0.3-0.3-0.3-0.6-0.3-0.9c0-0.3,0-0.6,0-0.9c0-0.3,0-0.9,0.3-1.2 c0-0.3,0.3-0.6,0.6-0.9c0.3-0.3,0.6-0.6,0.9-0.6c0.3-0.3,0.9-0.3,1.5-0.3c0.3,0,0.9,0,1.2,0.3c0.3,0,0.9,0.3,1.2,0.6 c0.3,0.3,0.6,0.6,0.9,0.9c0.3,0.3,0.3,0.9,0.3,1.2s0,0.9-0.3,1.2c0,0.3-0.3,0.6-0.6,0.9c-0.3,0.3-0.6,0.6-0.9,0.9 c-0.3,0.3-0.6,0.6-0.9,0.6l2.8,3.4c0.3-0.9,0.3-1.5,0.6-2.5h1.5c0,0.3,0,0.9,0,1.2s0,0.6-0.3,0.9c0,0.3-0.3,0.6-0.3,0.9 c0,0.3-0.3,0.6-0.3,0.9l2.8,3.4h-2.1l-1.5-1.8C280.5,153.1,279.9,153.4,279.3,153.7z M275.6,147.5c-0.3,0.3-0.6,0.3-0.9,0.6 s-0.3,0.6-0.6,0.9c0,0.3-0.3,0.6-0.3,1.2c0,0.3,0,0.6,0.3,0.9c0.3,0.3,0.3,0.6,0.6,0.9c0.3,0.3,0.6,0.3,0.9,0.6 c0.3,0,0.6,0.3,0.9,0.3c0.6,0,1.2-0.3,1.8-0.6c0.6-0.3,0.9-0.6,1.2-1.2l-3.4-4C276.2,147.2,275.9,147.2,275.6,147.5z M278.1,144.5 c0.3-0.3,0.3-0.3,0.6-0.6c0.3-0.3,0.3-0.3,0.6-0.6c0.3-0.3,0.3-0.6,0.3-0.9s0-0.9-0.3-1.2s-0.6-0.6-1.2-0.6c-0.3,0-0.9,0-1.2,0.3 c-0.3,0.3-0.6,0.6-0.6,1.2c0,0.3,0,0.3,0,0.6s0.3,0.3,0.3,0.6s0.3,0.3,0.3,0.6c0.3,0.3,0.3,0.3,0.6,0.6 C277.5,144.8,277.8,144.8,278.1,144.5z"></path> <path d="M301.1,149.1v1.5h-1.8v3.4h-1.5v-3.4h-6.4v-1.8l6.7-9.5h1.5v9.8C299.5,149.1,301.1,149.1,301.1,149.1z M297.4,142 L297.4,142l-4.9,7h4.9V142z"></path> <path d="M302.9,145.1c0-0.6,0-1.2,0.3-1.8c0-0.6,0.3-1.2,0.6-1.5c0.3-0.6,0.6-0.9,0.9-1.2s0.9-0.6,1.2-0.9 c0.6-0.3,1.2-0.3,1.8-0.3s1.5,0,1.8,0.3c0.6,0.3,0.9,0.6,1.2,0.9c0.3,0.3,0.6,0.9,0.9,1.2c0.3,0.6,0.3,0.9,0.6,1.5 c0,0.6,0.3,1.2,0.3,1.8s0,1.2,0,1.5s0,1.2,0,1.5c0,0.6,0,1.2-0.3,1.8c0,0.6-0.3,1.2-0.6,1.5c-0.3,0.6-0.6,0.9-0.9,1.2 s-0.9,0.6-1.2,0.9c-0.6,0.3-1.2,0.3-1.8,0.3c-0.6,0-1.5,0-1.8-0.3c-0.6-0.3-0.9-0.6-1.2-0.9c-0.3-0.3-0.6-0.9-0.9-1.2 c-0.3-0.6-0.3-0.9-0.6-1.5c0-0.6-0.3-1.2-0.3-1.8s0-1.2,0-1.5S302.9,145.7,302.9,145.1z M304.7,148.8c0,0.6,0,1.2,0.3,1.8 s0.6,1.2,0.9,1.5s0.9,0.6,1.8,0.6c0.6,0,1.2-0.3,1.8-0.6c0.3-0.3,0.6-0.9,0.9-1.5s0.3-1.2,0.3-1.8s0-1.2,0-1.8c0-0.3,0-0.6,0-1.2 c0-0.3,0-0.9,0-1.2s0-0.9-0.3-1.2c0-0.3-0.3-0.9-0.6-1.2c-0.3-0.3-0.6-0.6-0.9-0.6c-0.3-0.3-0.9-0.3-1.2-0.3c-0.6,0-0.9,0-1.2,0.3 s-0.6,0.3-0.9,0.6s-0.3,0.6-0.6,1.2c0,0.3-0.3,0.9-0.3,1.2s0,0.9,0,1.2s0,0.9,0,1.2C304.7,147.5,304.7,148.2,304.7,148.8z"></path> <path d="M314.2,145.1c0-0.6,0-1.2,0.3-1.8c0-0.6,0.3-1.2,0.6-1.5c0.3-0.6,0.6-0.9,0.9-1.2s0.9-0.6,1.2-0.9 c0.6-0.3,1.2-0.3,1.8-0.3c0.6,0,1.5,0,1.8,0.3c0.6,0.3,0.9,0.6,1.2,0.9s0.6,0.9,0.9,1.2c0.3,0.6,0.3,0.9,0.6,1.5 c0,0.6,0.3,1.2,0.3,1.8s0,1.2,0,1.5s0,1.2,0,1.5c0,0.6,0,1.2-0.3,1.8c0,0.6-0.3,1.2-0.6,1.5c-0.3,0.6-0.6,0.9-0.9,1.2 s-0.9,0.6-1.2,0.9c-0.6,0.3-1.2,0.3-1.8,0.3c-0.6,0-1.5,0-1.8-0.3c-0.6-0.3-0.9-0.6-1.2-0.9c-0.3-0.3-0.6-0.9-0.9-1.2 c-0.3-0.6-0.3-0.9-0.6-1.5c0-0.6-0.3-1.2-0.3-1.8s0-1.2,0-1.5S314.2,145.7,314.2,145.1z M316.4,148.8c0,0.6,0,1.2,0.3,1.8 s0.6,1.2,0.9,1.5s0.9,0.6,1.8,0.6s1.2-0.3,1.8-0.6c0.3-0.3,0.6-0.9,0.9-1.5s0.3-1.2,0.3-1.8s0-1.2,0-1.8c0-0.3,0-0.6,0-1.2 c0-0.3,0-0.9,0-1.2s0-0.9-0.3-1.2c0-0.3-0.3-0.9-0.6-1.2c-0.3-0.3-0.6-0.6-0.9-0.6c-0.3-0.3-0.9-0.3-1.2-0.3s-0.9,0-1.2,0.3 s-0.6,0.3-0.9,0.6s-0.3,0.6-0.6,1.2c0,0.3-0.3,0.9-0.3,1.2s0,0.9,0,1.2s0,0.9,0,1.2C316.1,147.5,316.1,148.2,316.4,148.8z"></path> <path d="M334.4,139.3V154h-1.8v-14.7H334.4z"></path> <path d="M347.9,153.1c-0.9,0.9-2.5,1.5-4.3,1.5s-3.4-0.3-4.6-1.2c-0.9-0.9-1.5-2.5-1.5-4.3v-9.5h1.8v9.5c0,1.2,0.3,2.5,0.9,3.1 s1.8,0.9,3.1,0.9s2.1-0.3,2.8-0.9c0.6-0.6,0.9-1.8,0.9-3.1v-9.5h1.8v9.5C349.4,150.6,349.2,152.1,347.9,153.1z"></path> <path d="M362,154l-5.2-14.7h2.1l4.3,12.9l0,0l4.3-12.9h2.1l-5.2,14.7H362z"></path> <path d="M370.9,141.4v-2.1h1.8v2.1H370.9z M372.7,143.3V154h-1.8v-10.7C370.9,143.3,372.7,143.3,372.7,143.3z"></path> <path d="M380.1,143.3v1.5H378v6.7c0,0.3,0,0.3,0,0.6c0,0,0,0.3,0.3,0.3h0.3c0.3,0,0.3,0,0.6,0h0.9v1.5h-1.2c-0.3,0-0.9,0-1.2,0 c-0.3,0-0.6-0.3-0.9-0.3c-0.3-0.3-0.3-0.3-0.3-0.6s0-0.6,0-1.2v-6.7h-1.8v-1.8h1.8v-3.1h1.8v3.1H380.1L380.1,143.3z"></path> <path d="M390.2,154.3c-0.3,0-0.9,0-1.2-0.3c-0.3-0.3-0.3-0.6-0.3-1.2c-0.6,0.6-0.9,0.9-1.8,1.2c-0.6,0.3-1.2,0.3-2.1,0.3 c-0.6,0-0.9,0-1.2-0.3c-0.3,0-0.9-0.3-1.2-0.6c-0.3-0.3-0.6-0.6-0.9-0.9s-0.3-0.9-0.3-1.2c0-0.6,0-1.2,0.3-1.5s0.6-0.6,0.9-0.9 c0.3-0.3,0.6-0.3,1.2-0.6c0.3,0,0.9-0.3,1.2-0.3c0.6,0,0.9-0.3,1.5-0.3s0.9,0,1.2-0.3c0.3,0,0.6-0.3,0.9-0.3 c0.3-0.3,0.3-0.3,0.3-0.6s0-0.6-0.3-0.9c0-0.3-0.3-0.3-0.6-0.6c-0.3,0-0.6-0.3-0.9-0.3s-0.6,0-0.9,0c-0.6,0-1.2,0-1.8,0.3 c-0.6,0.3-0.9,0.9-0.9,1.5h-1.8c0-0.6,0.3-1.2,0.3-1.5c0.3-0.3,0.6-0.9,0.9-1.2s0.9-0.6,1.5-0.6s1.2-0.3,1.8-0.3 c0.6,0,0.9,0,1.5,0s0.9,0.3,1.2,0.3c0.3,0.3,0.6,0.6,0.9,0.9c0.3,0.3,0.3,0.9,0.3,1.5v5.5c0,0.3,0,0.6,0,0.9 c0,0.3,0.3,0.3,0.6,0.3c0,0,0.3,0,0.6,0v1.2C391.1,154.3,390.8,154.3,390.2,154.3z M387.7,148.8c-0.3,0-0.6,0-1.2,0.3 c-0.3,0-0.9,0-1.2,0.3c-0.3,0-0.6,0.3-1.2,0.3c-0.3,0-0.6,0.3-0.9,0.6s-0.3,0.6-0.3,0.9s0,0.6,0.3,0.6c0,0.3,0.3,0.3,0.3,0.6 c0.3,0,0.3,0.3,0.6,0.3c0.3,0,0.6,0,0.9,0c0.6,0,1.2,0,1.5-0.3s0.6-0.3,0.9-0.6s0.3-0.6,0.6-0.9c0-0.3,0.3-0.6,0.3-0.9v-1.8 C388.4,148.8,388.1,148.8,387.7,148.8z"></path> <path d="M394.8,143.3v1.5l0,0c0.9-1.2,1.8-1.8,3.4-1.8c0.6,0,1.2,0,1.8,0.3c0.6,0.3,0.9,0.6,1.2,1.5c0.3-0.6,0.9-0.9,1.5-1.2 s1.2-0.6,1.8-0.6c0.6,0,0.9,0,1.5,0.3c0.3,0,0.9,0.3,1.2,0.6c0.3,0.3,0.6,0.6,0.6,0.9c0.3,0.3,0.3,0.9,0.3,1.5v8h-1.8v-7 c0-0.3,0-0.6,0-0.9s-0.3-0.6-0.3-0.6c0-0.3-0.3-0.3-0.6-0.6c-0.3,0-0.6-0.3-0.9-0.3c-0.9,0-1.5,0.3-2.1,0.6 c-0.6,0.6-0.6,1.2-0.6,1.8v6.7H400v-7.1c0-0.3,0-0.6,0-0.9c0-0.3-0.3-0.6-0.3-0.6c0-0.3-0.3-0.3-0.6-0.6c-0.3,0-0.6-0.3-0.9-0.3 c-0.6,0-0.9,0-1.2,0.3c-0.3,0.3-0.6,0.3-0.9,0.6s-0.3,0.6-0.6,0.9c0,0.3-0.3,0.6-0.3,0.9v6.7H393v-10.7 C393,143.3,394.8,143.3,394.8,143.3z"></path> <path d="M410.7,141.4v-2.1h1.8v2.1H410.7z M412.6,143.3V154h-1.8v-10.7C410.7,143.3,412.6,143.3,412.6,143.3z"></path> <path d="M417.2,143.3v1.8l0,0c0.6-1.2,1.8-1.8,3.4-1.8c0.6,0,1.2,0,1.8,0.3c0.6,0.3,0.9,0.6,1.2,0.9s0.6,0.6,0.6,1.2 c0,0.6,0.3,0.9,0.3,1.5v7h-1.8v-7.4c0-0.6-0.3-1.2-0.6-1.5c-0.3-0.3-0.9-0.6-1.5-0.6s-0.9,0-1.5,0.3c-0.3,0.3-0.6,0.3-0.9,0.6 s-0.3,0.6-0.6,0.9c0,0.3-0.3,0.9-0.3,1.2v6.1h-1.8v-10.7C415.3,143.3,417.2,143.3,417.2,143.3z"></path> <path d="M438,139.3c2.1,0,4,0.6,5.2,1.8s1.8,3.1,1.8,5.2c0,1.2,0,2.5-0.3,3.4s-0.6,1.8-1.2,2.5c-0.6,0.6-1.2,1.2-2.1,1.5 s-1.8,0.6-3.1,0.6h-5.5v-14.7h5.2V139.3L438,139.3z M438.3,152.4c0.3,0,0.6,0,0.9,0s0.6,0,0.9-0.3c0.3,0,0.6-0.3,1.2-0.6 s0.6-0.6,0.9-0.9c0.3-0.3,0.6-0.9,0.6-1.5c0.3-0.6,0.3-1.5,0.3-2.5s0-1.5-0.3-2.5c-0.3-0.6-0.3-1.2-0.9-1.8 c-0.3-0.6-0.9-0.9-1.5-1.2s-1.5-0.3-2.5-0.3h-3.4v11.6H438.3z"></path> <path d="M448.7,149.7L448.7,149.7h0.3c0.3,0,0.3,0,0.6,0c0.3,0,0.3,0,0.6-0.3l0.3-0.3c0-0.3,0-0.3,0-0.6s0-0.9-0.3-0.9 c-0.3-0.3-0.6-0.3-1.2-0.3c-0.3,0-0.6,0-0.6,0c-0.3,0-0.3,0.3-0.6,0.3c0,0.3-0.3,0.3-0.3,0.6s0,0.6,0,0.6h-0.9 c0-0.3,0-0.9,0.3-1.2c0-0.3,0.3-0.6,0.6-0.9s0.6-0.3,0.9-0.6c0.3,0,0.6-0.3,1.2-0.3c0.3,0,0.6,0,0.9,0s0.6,0.3,0.9,0.3 s0.3,0.3,0.6,0.6c0,0.3,0.3,0.6,0.3,0.9s0,0.6-0.3,0.9s-0.6,0.6-0.9,0.6l0,0c0.6,0,0.9,0.3,1.2,0.6c0.3,0.3,0.3,0.9,0.3,1.2 s0,0.9-0.3,1.2s-0.3,0.6-0.6,0.9c-0.3,0.3-0.6,0.3-0.9,0.6c-0.3,0-0.6,0.3-1.2,0.3c-0.3,0-0.9,0-1.2-0.3c-0.3,0-0.6-0.3-0.9-0.6 c-0.3-0.2-0.3-0.6-0.6-0.9c0-0.3-0.3-0.6-0.3-1.2h0.9c0,0.6,0.3,0.9,0.6,1.2c0.3,0.3,0.6,0.6,1.2,0.6c0.3,0,0.6,0,0.6,0 c0.3,0,0.3-0.3,0.6-0.3c0.3,0,0.3-0.3,0.3-0.6s0-0.3,0-0.6s0-0.6,0-0.6c0-0.3-0.3-0.3-0.3-0.6c-0.3,0-0.3-0.3-0.6-0.3 c-0.3,0-0.6,0-0.6,0C449,149.7,449,149.7,448.7,149.7L448.7,149.7L448.7,149.7z"></path> </g> </g> </svg> 